<mxfile host="app.diagrams.net" modified="2023-02-20T10:19:29.654Z" agent="5.0 (Windows NT 10.0; Win64; x64) AppleWebKit/537.36 (KHTML, like Gecko) Chrome/109.0.0.0 Safari/537.36" etag="zyoTnNNrAccB-8DMMAwF" version="20.8.20" type="github">
  <diagram name="Page-1" id="8ppmVkJU3CkYKlq6dA0x">
    <mxGraphModel dx="1434" dy="1874" grid="1" gridSize="10" guides="1" tooltips="1" connect="1" arrows="1" fold="1" page="1" pageScale="1" pageWidth="850" pageHeight="1100" math="0" shadow="0">
      <root>
        <mxCell id="0" />
        <mxCell id="1" parent="0" />
        <mxCell id="V-wwlSEz8VEvQ7FsHcgh-136" value="" style="rounded=0;whiteSpace=wrap;html=1;" vertex="1" parent="1">
          <mxGeometry x="880" y="2050" width="350" height="91.5" as="geometry" />
        </mxCell>
        <mxCell id="V-wwlSEz8VEvQ7FsHcgh-1" value="" style="rounded=0;whiteSpace=wrap;html=1;strokeColor=#6c8ebf;dashed=1;fillColor=#dae8fc;" vertex="1" parent="1">
          <mxGeometry x="253.51" y="180" width="460" height="340" as="geometry" />
        </mxCell>
        <mxCell id="V-wwlSEz8VEvQ7FsHcgh-2" value="" style="aspect=fixed;html=1;points=[];align=center;image;fontSize=12;image=img/lib/azure2/containers/Kubernetes_Services.svg;fillColor=#e2e9f3;" vertex="1" parent="1">
          <mxGeometry x="239.99999999999997" y="488" width="45.33" height="40" as="geometry" />
        </mxCell>
        <mxCell id="V-wwlSEz8VEvQ7FsHcgh-4" value="&lt;b&gt;oneApi&lt;/b&gt;" style="rounded=1;whiteSpace=wrap;html=1;fillColor=#d5e8d4;strokeColor=#82b366;" vertex="1" parent="1">
          <mxGeometry x="730.48" y="80" width="120" height="60" as="geometry" />
        </mxCell>
        <mxCell id="V-wwlSEz8VEvQ7FsHcgh-14" style="edgeStyle=orthogonalEdgeStyle;rounded=0;orthogonalLoop=1;jettySize=auto;html=1;fillColor=#e2e9f3;entryX=0;entryY=0.5;entryDx=0;entryDy=0;" edge="1" parent="1" source="V-wwlSEz8VEvQ7FsHcgh-5" target="V-wwlSEz8VEvQ7FsHcgh-4">
          <mxGeometry relative="1" as="geometry">
            <Array as="points">
              <mxPoint x="590.64" y="350" />
              <mxPoint x="590.64" y="110" />
            </Array>
          </mxGeometry>
        </mxCell>
        <mxCell id="V-wwlSEz8VEvQ7FsHcgh-16" style="rounded=0;orthogonalLoop=1;jettySize=auto;html=1;fillColor=#e2e9f3;entryX=0.11;entryY=0.489;entryDx=0;entryDy=0;entryPerimeter=0;" edge="1" parent="1" source="V-wwlSEz8VEvQ7FsHcgh-5" target="V-wwlSEz8VEvQ7FsHcgh-8">
          <mxGeometry relative="1" as="geometry">
            <mxPoint x="765.64" y="550" as="targetPoint" />
            <Array as="points" />
          </mxGeometry>
        </mxCell>
        <mxCell id="V-wwlSEz8VEvQ7FsHcgh-5" value="" style="shape=image;verticalLabelPosition=bottom;labelBackgroundColor=default;verticalAlign=top;aspect=fixed;imageAspect=0;image=data:image/png,iVBORw0KGgoAAAANSUhEUgAAADAAAAAcCAYAAAFQawxcAAAAAXNSR0IArs4c6QAAAARnQU1BAACxjwv8YQUAAAAJcEhZcwAAFxEAABcRAcom8z8AAAYeSURBVEhLzVdrbNNVFP8rgW3tvxJCljjaf9u5D/hMCEMCa9exhSULiTFRMJAAIm06YGLiB9QPJsTEhA8GCepG241tlAHbcIDrv6/1zfqgLza7BzAlm4l8kkR56DQK13Nvb7t2W8deOn7JSfu/99xz7rn3nhczK7DWRqS0ahD9TELWm0AF5obPRL6zExMSd9jBeUJKWdcoEvnPZ6/AUDjUW+jfbGzj3y6jf5MQ24J7pe4oYi2GbDFSdwxJ22+SwSmTk1EV+YBsvcJ3cGZGAv7YKiyRtT5BKtkCkCw0hDhn/GPW1XqfLHS3zkLLXIH3rrSo0euOPavpUG6IfG2I9Rofq9wHUHmPdubtrOH960QeIzljga35PB2eHpwn2oaN5tzxUfwiyCLesI5OZ0Mevpk+Ifwfj5ETAiIMk0GYg4NI3BIflLbfQkwnWibgv3meLOINf1O2uaO0WyuovHaYvIJyp3aADi8SOjtXMKageHtHTSG5pqQSVGbZW0I55g+BufFE6swwCe3NJpXpXZ3Cov6tVK9dTtnmDokn/h4+a6l/cCyv+/gh1taUVsL2NKN8vj7bF2cDSTBYII/cIreeRd7rqNg3oBGYdXdZsz6tSNQ7TXjIBYgrbqkrmhYqu3Yj52JR8MKENaBQaDH8QadyAwcuIhyUiJ2Rr+gww50bQpKWOCGubXCYDjOCrq/Xp45NaNH76PDCsLlb+yKDjj5LPxcXKpf2ospZiyqDh1H55X0cHV4cbOLVNalQS8KtF3yhR3uaTi8Cov4SpstXpLSpf1FakkoUNs1dOrsw5Jv0O1n7acQ6WhDDX3xT5a59iJXg4yrt1K6kbPOE5WSeKNQ+8e69RvJ0t/Z9iBQOzaeEZyGQ2K/Vsc7mYPrNYyWBC7N3rpkgCw0/AkJrraNyFhJ6phLW2XKfss0dsshIa8rh8K88OoI2Wh4/h8uJbCWtY3TJ7AECuzPDRYpkgUGUd0lXwtKcRwiSvdCqP0OXPhlrXLF3ZL6+CcEQ4HCaI6kuAqkOoWeE5sZqKAomlEBUZXl9LRUxM4qv387atcQV+ZxOZUFo1tWnFWAChQVm3QY6nRvy8I0JBaHhX1cf8Ytk3XegqoLw3TGCxM3RBsrKCG2N0bQC8JG87wzFdCo3Ugrk8R/Tz1DcFGmQtF5PRlIcVZv6X6VTUGAa/klZsJJvWEWH/2d07lhWZtccK3do71UG6pDSrnFv7Nj9ZGuXHPDgFOb9V6pCUOXYkrExRVv8dUjl0A4p7Bo15X76sNW0a1t1QFO3xbLnUJlF01XhSVZSmVQOsVgF45vNmiq67CkAxHYhb/hWdBWKbmcLEgHlW4w7q81vKVSu2gcqzwGo3KkRcDMV+NumPvVy544VVMLSYcWVhrXCnubbosw4hQs0+Iaa6QHD966qNu+sglP/HXyCZMPKwPtg0P5zNZbDeVTMEgGqeqFZH8ZNZnrzmQQNCp4rsLacq+nYXljh0uo2Wfetp6uXDlJnaDfn67sv9SfGi3tuvMac/UgCmx1nHZAhchkC5UMBrz9ORSwNOHe0FjcNMn8imbSB5GFIGL0DY5wrWiKw6T8ht5HZTKTIDOQ5gwusMZavf4mK/G9RFIsJOF//0AtDd5A89gPJ09MVBcQQmJe4YqfwOqHNYCQOPdkIYoge4Tnwj7E8+ywy4XyAOynOEblY3D86dbO5CIzABYg0NPRnSe9Pr+SbviwHR34ocsOpZ3RdacK35DH+xZp0B6naxQHnCW+QeuI/ywID02/U24dkV/thw7EBqTuaSJGstz8BTyxQ6PGwVBSB6HL9G+Ab46Q+n2wEJvAbKKkfC/hGLV2yMEAn6MoqkFKEnwn0t/DWRxh9bLmkKXaEa7/lFTfH0sS13/RK2hInmKPZTRzbcbIQCqkQLsuJL0w2At9Gz2lovE/tokvmD9zKTjEA6lXuav+41BrcStmYotZ4qaRt4B7XNpBucQkZv0fc2QQq0oeUlDUN1nKyEJ5VKCtnEAPgdiBS5fNNMso6f0w2ADf7sPnQGkd4NWVJQ9wY/gL6cpSqLFPEnR8GQxKDUkP/FCcVWHXrwSceZUYqHLlEJv1+yjIDGOZfxKmR2mc2NnUAAAAASUVORK5CYII=;" vertex="1" parent="1">
          <mxGeometry x="385.64" y="341.6600000000001" width="80" height="46.67" as="geometry" />
        </mxCell>
        <mxCell id="V-wwlSEz8VEvQ7FsHcgh-123" style="edgeStyle=orthogonalEdgeStyle;rounded=0;orthogonalLoop=1;jettySize=auto;html=1;entryX=0.5;entryY=1;entryDx=0;entryDy=0;strokeColor=#001224;fontColor=#6314FF;fillColor=#e2e9f3;dashed=1;" edge="1" parent="1" source="V-wwlSEz8VEvQ7FsHcgh-8" target="V-wwlSEz8VEvQ7FsHcgh-4">
          <mxGeometry relative="1" as="geometry" />
        </mxCell>
        <mxCell id="V-wwlSEz8VEvQ7FsHcgh-8" value="" style="sketch=0;html=1;dashed=0;whitespace=wrap;fillColor=#2875E2;strokeColor=#ffffff;points=[[0.005,0.63,0],[0.1,0.2,0],[0.9,0.2,0],[0.5,0,0],[0.995,0.63,0],[0.72,0.99,0],[0.5,1,0],[0.28,0.99,0]];verticalLabelPosition=bottom;align=center;verticalAlign=top;shape=mxgraph.kubernetes.icon;prIcon=api" vertex="1" parent="1">
          <mxGeometry x="538.15" y="400" width="100" height="88" as="geometry" />
        </mxCell>
        <mxCell id="V-wwlSEz8VEvQ7FsHcgh-13" value="" style="edgeStyle=orthogonalEdgeStyle;rounded=0;orthogonalLoop=1;jettySize=auto;html=1;fillColor=#e2e9f3;" edge="1" parent="1" source="V-wwlSEz8VEvQ7FsHcgh-12" target="V-wwlSEz8VEvQ7FsHcgh-5">
          <mxGeometry relative="1" as="geometry" />
        </mxCell>
        <mxCell id="V-wwlSEz8VEvQ7FsHcgh-12" value="" style="shape=image;verticalLabelPosition=bottom;labelBackgroundColor=default;verticalAlign=top;aspect=fixed;imageAspect=0;image=data:image/png,iVBORw0KGgoAAAANSUhEUgAAANMAAADvCAMAAABfYRE9AAAAulBMVEX///8AljkAlDQAjyjn9Ove8uaEyZwAnkZDpFu75MsAlDEAmDkAkS2CwpS53cQAjSKo0bH3/Pns9/Dz+vYAjiTp9+/Y7N4AjBvK6NVKp2GXzqhLrGfN6NZksXiJx5vA4Mm03MGk17YfmkIpoE58xJNzvIhcr3FBqF+Sz6bT7d0AhgButX43oVOg1LEglj1Trm0znk5ouYBguX1WtHVtvYefzaofo0+Ux6A2qV1Zq2x4uYgqmEOu3sGMzaO65wX5AAANn0lEQVR4nN1d6WKyOBRNAtQ2xoWl4C7uWrHWrn62ff/XGq1dchGQACqZ82vmq6U5Jnc594YEobNANzRNUw39PH/tHLCrw3Vxi2anbFx6LNlAb0wUheAtqFJsdy89nCzQrdMvQnsQvJJ9qnSt6XCMdmB3DalZaW+Y4QNYk6p56ZElxrTOyCGlrV2Rce3SY0uGGmBEKG9WFD+rlx6fOGYrh3KMWH3eflC4uVIqL5Kx0l4KPAFr8KJtJ25EOJq40nRlisG9a37Z0crQ/vpnvTZxwAKUx6zsAWBEPO3vZ70+4X/GhlL49dnQ4l0Dq1fBj43OAKxK/HJ7oYHGxm0DDFkpvmj+j7Q2Fu89rHH5EgOND/caeGzn0Q74kF72HI43u18FfSof0O01WHZ02Qr7aO8dch/mNLGwSwqMSI2ID6ulPlijg2oOnYU+9fjUjpHGkZDaGvF+nShj9yzjFMANVBRO83iSoJdxhfsdhtsH7uSSmC0daEgxY+nigY9kzMlPtNI6Fr/slOuX2DmPXerzv1pZu7lgpTeugSHRjtASaj3xfp3Q8c2pBhofNY9PdkilKWoUepeCVAqvLmxWW0XBMyL1JCUUffoAZ/qYyzwltLciPxgrcZCZbYo+s7pQDNZ7E4X3WqyUPMXRu9BzXkiFtAZQNTRn6Z7nYqhQVmefKvsZRqT6R+pHmiVgVsrRTCRbqG9QUfSzqS3MSiDQWecU9x+gIkSd56y8r96F4r7YDs3ss0VtAmpcJFxRJIDeewCJI3s8g1nZJZhO13sZ/wFzOADRCi9OnC4ZfkN6O4Edt0awojHO+msD+LgGidDd42k8k94t8IuBFecnS5daTfD9keYJ46JPhVijk3x7dsfh1jmx6qdtTmhQ3FuF7FWI0VjDGtfbybPn2spnVhnXzG6gonCezlG90muUZ0Xvl9lNlW4/wQTz+my6rQHMilqdjMxK60AhcNYu36zjkzNZmJW5mFjcQ5l1ekOC8KkQmr5zX5sAQ1KWKRVFAujuQAFm9ZRqquynOxCRzmdIEEMo7pVFYrPSOqBQZXkvFytU2RsChjKpJlMhvWsgzZ2rS9Zz9BZUIXSeIImpTUDngS0v3U/RPwZgREQ0XbJXPkXhnmScYtB94t4RMSu14WuknEJRJEFrAzr3yrJ6/Hf2aPiafZlJ8/TQW2uoQsaxYotfmk8ubUg+NHw1uONmNYPNPqWZ0GmeELcdaBmFaiQr4+WVT4QUfO5EKB5qG7CUrGU5/Iv3SXMnt/1wvTwA0aq/DP7udXsNexTX50/tBLAY+Lb/BCxAu0SB86/Hb/ZdBho0K8vzN1XMhsd/gDnVXBoSROsRLCxrDFTIbAmKn5WzSPP0MMt9IO7x6E+tdvllR2g9By3VuJgCcW8VftZfi58ky2vk3JAgtA0viNj3vgx18keJMbGueQ6gtx454cpKXzPS+U0cqLKWjdEOuvv6uwBJf6erZt73/xO2lMiQAMzO72YnZbSdqOq3E2eD/O94DMdsU/yemqK6FVp7TsST++0QvfE9UU4LmU/7WSOx5VVe0d5PlDVFxuvXf5JrOcJsBHr7yVGukFrYT9O1jB4P4CYbTtp0tGq3V6PPblYldG0x2j3wI8HzsuBkLAYKJXQHorDXRQZvC9prhX09j1Hxtmp6TttAB97WIhVaSrmpwOhwGalCRTd8pOZkdA5fbbIKb2kinDnm5c5WlHbESKXlZI4C3j/bpvRpikxNxfc4+in0+2k5dRwcCGIlbroOKwdPuxOqiafkNAuhtDOrhKRq74ev6RFPZPWl5PQYtPK+xzFI5ik6gY8U2UGXjpP2HkppRypRpJscTtPWojYCj0jHaRH4NucP2DpB660W+EhSFxhVOk6dSE57CSMI99BD7Eb1KuAl0nEq0aABcDP1JsypGsgJFwU8zmk54aL7/+NEqKhHzz8nTAqCzk8CTpj9E3N+MnDCbC7k/KTghFnn/8cJ06h3JCXlRJhAU04STpi8xyclCyfMlrGLCtJwwnQV1/nJwwkrz/8/TtiJ+V6CTJwwjjcqqTgRL1YpSSpOmK7j1Inl4rTV8v8/TliJUVCVjVOcfp18nPDRvqp0nDBRjmV+ueUUXiKj3pGOR1459V/DS85sHq3l88qJ2s1wUsom0vnllZOjGpNwS7MiZW9+Oe0OKwglpbhyckKuv9n3B9KPcH555oQWwYPb/43wdDbXnFBgp3cPZRzq/PLNyWxHkBrJyQlpXoTzCytk5pwT0gLazT9gIR3avHNC3eCjbr/+zkNwOpt7TqgRkSR5gTW//HNCpfAwFSx7JeBkziOc35OcnJBRj9gWErArXwZOaFYM9xP3rpycUDmCFD1IkuTghKrhUYpQv/OThJMetiEO794V8Wl5STgh/dEK/NzX3yvB6qwsnJAxCXd+vsxPGk7IXofblOPKyQnV7kM5EcpnfhJxQr27cFJ8F0cmTmgakflxbwpLxUlfRfiJ9m+SJBUnpC7jyF65OCHtPkL2LuTkhGYkPPPrl+XkhD7CSVGvJScnPXhD/BeYZ0jJCenPx2SvfJwQ+hdB6lmXk1NUIZM05OSEuv1I5yclJ1QthnHCRLkNfrch75zQIqI1tX4OfmTeOaFRRGsqZGHmnpOxDJ+pEOSeE9LWoptF8s8J1SJa2LJyQt1wk5KWE3oLr/lJywldhSdJ0nIyHkX8hBycts5PwE9Iwglp4eUxaTmhbrjslZYT6kVUXWTlpA/jOj95OCE9buYnESeEBvFmSipOswgtLysnVI7YlCQrJ9SIM1GScUKd8G6vtJzQ+Dgp6Thpy6POTzpOyL4+5ifk44S6Ea945IOTJX4avXtM9goc3piO0zT4kJtCggPmSpGkiCfwynw6TrPAXQ/sMcFhdeYmKkzRtsDJGinPofKCJspyRQntYEQ5PypyAE9KTkEvMJBJstMjtUK4n+iLPDIlJz1gv6HQERg8bBo2U47QYXVpz6qzD7pJylyMCQcNnDTOPfJR6DGpz0ks+0hZ9RRHJBpvOEAjkpXY0Tvpz7MEZ57jSsp7zGvPlo8Vq3wKHqWWwbmj6pNCKfkCC9pdLQbdfqbs53mEMqUpfIpkJufDzob/rj3vuj5eZHOK+82wXd8+cPvE9jTBtGd05q2uzWZ2lqdp32r2bKYle2JGnHKFP05mc5+c9GU9j/0XQ/rL6XvbzLEXnXOP1sM+ulRchF6+nSgdSX3at1v/DpjW1oi6P3sxmJc0u7k8tHn/O7+nE4N/VYmwQcSlQzmGMcW/ioW5u3/pcunI3cqWjpVRLvzJBDreB4IGpzVZvySZU+/OwRuZP4ev8gKasAeZzMpcgbsu7/5qMg3MKWhieV1JFqDxWeEZ0T5fkumOwaVDlVWu7+j6hu7Ca3CLJRiNbl981yzm/y6e2sbiV5ezPFxd6nOF/wh9OOlN8alhju75ZacUF4F5kLYEZuUM8mtWRs8Bd6W9D8M+qbvwVnq6SXkTw4mgu0u+cEXxKOr4bPWl6Lu9NIeZbWuOuWVHnPWx9aSt4HWfA/cs44wPY9jnLYT1ezFK2rN/Rfg1tHJkVoZLgSH1S/FEsV4FV10wkvaCk8ygl5cVYPDz+H0PtQHdysM0F1M1a4NEaOuYhTop6jMBq/ZB9PaY7GFcYa5eux3eVPgRN23+2nDiPF3WrIwq5v13Qv1gvkzAAvSnU2dFtw0ip5XkKvQvqB0+7SXUu8p0nPGhPQNDsgZuiju0bp9AuqRcRNybUwdkovdi9w0dojwGMdhJPOlJYVY9oCj6o/SKwajCO6qL572jujuHrmqVTWKtlYAKYd7i+O9khG0iBFpCxWpWl9H5VUileB6/bn6C0E/fxSNSFNwlvH48MrvPBmZ5AiISHmVdUFDdAlAh/c6JbzyttQlIhAKkeXqozyDsMU/kEi1R3I6gorCqJ1rtrXYR+KDXU5mVsYCKYtDJzDUcorfkPStlJ1EhZrfJX+dIyYmNV23wgnGrQkqZf4OzNgaGNDl97mI+AQ+Ydc3MHIKwQVjvLGFj65FAtGpmd0Oy0cMgERoMz3WftF6FRV3rLaPIUV6CErc1OmfRQJ2CbSzME7xvNBA2qHHhyrp8Qm8XBOORAQGA0/bt9SsCFcUlaiDlMQbRalxLMQij2q9wL/mzwfwyF7Mb7gAkZMXkLUa3zW93I5XVuVXaH7Qp48W94iXbS6WNQLHYKpzbkHzDWUFxXxDPNI0rBpp976k3maXGxz8KhaiY/zXLcAH3N3lo5hnVAYyTImbVBYaErXZ28TsdjJEDi7Zx0yV9xSsKbDlpalxZQ2snaDGqUwUE7v7nxQ0Jwq3DmtlRoW1218CQ8tM9+YP6MvB17iOjZmtOYSKc+MLxk0JdwXrpe7hZ6at73pAY/siRIUHMxrxZbeVcsFkZPQLbWwkuez4fdh1xoBY2AWbl7+6fVVEkgU/cH3buWxvi65rndtn9QV1BFdLnS9FmCft+KAGjHWq+DTGTHxVilBWYcowkYYR2/RVQFqZkb1buGPQo2CoviVA8qA0HmJVX+ljArnnlVQZDgvCpEEpA+k77+dieIIruv7CDVxiWbdftL4yeF/RKO2HzfCZC8aBO7w5eFrQKeVIUSaDBdGkrzUO3D0qE8vhXJm3TvEtuHMkQt9Un6liKYjnFklwRKQqmWpt+Thcz9Sz++z+cUizQWILvCQAAAABJRU5ErkJggg==;" vertex="1" parent="1">
          <mxGeometry x="399.15" y="240" width="52.97" height="60" as="geometry" />
        </mxCell>
        <mxCell id="V-wwlSEz8VEvQ7FsHcgh-33" style="edgeStyle=none;rounded=0;orthogonalLoop=1;jettySize=auto;html=1;strokeColor=#001224;fillColor=#e2e9f3;" edge="1" parent="1" source="V-wwlSEz8VEvQ7FsHcgh-18" target="V-wwlSEz8VEvQ7FsHcgh-12">
          <mxGeometry relative="1" as="geometry" />
        </mxCell>
        <mxCell id="V-wwlSEz8VEvQ7FsHcgh-18" value="" style="outlineConnect=0;dashed=0;verticalLabelPosition=bottom;verticalAlign=top;align=center;html=1;shape=mxgraph.aws3.application_load_balancer;fillColor=#F58534;gradientColor=none;" vertex="1" parent="1">
          <mxGeometry x="399.15" y="120" width="49" height="40" as="geometry" />
        </mxCell>
        <mxCell id="V-wwlSEz8VEvQ7FsHcgh-21" value="" style="shape=image;html=1;verticalAlign=top;verticalLabelPosition=bottom;labelBackgroundColor=#ffffff;imageAspect=0;aspect=fixed;image=https://cdn1.iconfinder.com/data/icons/KDE_Crystal_Diamond_2.5_Classical_Mod/128x128/mimetypes/html.png;fillColor=#e2e9f3;" vertex="1" parent="1">
          <mxGeometry x="225.64" y="50" width="40" height="40" as="geometry" />
        </mxCell>
        <mxCell id="V-wwlSEz8VEvQ7FsHcgh-32" style="edgeStyle=none;rounded=0;orthogonalLoop=1;jettySize=auto;html=1;entryX=0.5;entryY=0;entryDx=0;entryDy=0;entryPerimeter=0;strokeColor=#001326;fillColor=#e2e9f3;exitX=0.5;exitY=1;exitDx=0;exitDy=0;" edge="1" parent="1" source="V-wwlSEz8VEvQ7FsHcgh-22" target="V-wwlSEz8VEvQ7FsHcgh-18">
          <mxGeometry relative="1" as="geometry" />
        </mxCell>
        <mxCell id="V-wwlSEz8VEvQ7FsHcgh-22" value="https://&amp;lt;API-URL&amp;gt;" style="rounded=1;whiteSpace=wrap;html=1;fillColor=#fff2cc;strokeColor=#d6b656;" vertex="1" parent="1">
          <mxGeometry x="292.66" y="60" width="261.99" height="20" as="geometry" />
        </mxCell>
        <mxCell id="V-wwlSEz8VEvQ7FsHcgh-57" value="" style="rounded=0;whiteSpace=wrap;html=1;strokeColor=#6c8ebf;dashed=1;fillColor=#dae8fc;" vertex="1" parent="1">
          <mxGeometry x="90" y="1028" width="610" height="470" as="geometry" />
        </mxCell>
        <mxCell id="V-wwlSEz8VEvQ7FsHcgh-58" value="" style="aspect=fixed;html=1;points=[];align=center;image;fontSize=12;image=img/lib/azure2/containers/Kubernetes_Services.svg;fillColor=#e2e9f3;" vertex="1" parent="1">
          <mxGeometry x="90" y="1458" width="45.33" height="40" as="geometry" />
        </mxCell>
        <mxCell id="V-wwlSEz8VEvQ7FsHcgh-59" value="&lt;b&gt;oneApi&lt;/b&gt;" style="rounded=1;whiteSpace=wrap;html=1;fillColor=#d5e8d4;strokeColor=#82b366;" vertex="1" parent="1">
          <mxGeometry x="680" y="950" width="120" height="60" as="geometry" />
        </mxCell>
        <mxCell id="V-wwlSEz8VEvQ7FsHcgh-60" style="edgeStyle=orthogonalEdgeStyle;rounded=0;orthogonalLoop=1;jettySize=auto;html=1;fillColor=#e2e9f3;entryX=0;entryY=0.5;entryDx=0;entryDy=0;startArrow=none;" edge="1" parent="1" source="V-wwlSEz8VEvQ7FsHcgh-86" target="V-wwlSEz8VEvQ7FsHcgh-59">
          <mxGeometry relative="1" as="geometry">
            <Array as="points">
              <mxPoint x="445" y="980" />
            </Array>
          </mxGeometry>
        </mxCell>
        <mxCell id="V-wwlSEz8VEvQ7FsHcgh-61" style="rounded=0;orthogonalLoop=1;jettySize=auto;html=1;fillColor=#e2e9f3;entryX=0.11;entryY=0.489;entryDx=0;entryDy=0;entryPerimeter=0;startArrow=none;exitX=0.65;exitY=0.9;exitDx=0;exitDy=0;exitPerimeter=0;" edge="1" parent="1" source="V-wwlSEz8VEvQ7FsHcgh-125" target="V-wwlSEz8VEvQ7FsHcgh-65">
          <mxGeometry relative="1" as="geometry">
            <mxPoint x="620" y="1420" as="targetPoint" />
            <Array as="points" />
          </mxGeometry>
        </mxCell>
        <mxCell id="V-wwlSEz8VEvQ7FsHcgh-63" value="" style="shape=image;verticalLabelPosition=bottom;labelBackgroundColor=default;verticalAlign=top;aspect=fixed;imageAspect=0;image=data:image/png,iVBORw0KGgoAAAANSUhEUgAAADAAAAAcCAYAAAFQawxcAAAAAXNSR0IArs4c6QAAAARnQU1BAACxjwv8YQUAAAAJcEhZcwAAFxEAABcRAcom8z8AAAYeSURBVEhLzVdrbNNVFP8rgW3tvxJCljjaf9u5D/hMCEMCa9exhSULiTFRMJAAIm06YGLiB9QPJsTEhA8GCepG241tlAHbcIDrv6/1zfqgLza7BzAlm4l8kkR56DQK13Nvb7t2W8deOn7JSfu/99xz7rn3nhczK7DWRqS0ahD9TELWm0AF5obPRL6zExMSd9jBeUJKWdcoEvnPZ6/AUDjUW+jfbGzj3y6jf5MQ24J7pe4oYi2GbDFSdwxJ22+SwSmTk1EV+YBsvcJ3cGZGAv7YKiyRtT5BKtkCkCw0hDhn/GPW1XqfLHS3zkLLXIH3rrSo0euOPavpUG6IfG2I9Rofq9wHUHmPdubtrOH960QeIzljga35PB2eHpwn2oaN5tzxUfwiyCLesI5OZ0Mevpk+Ifwfj5ETAiIMk0GYg4NI3BIflLbfQkwnWibgv3meLOINf1O2uaO0WyuovHaYvIJyp3aADi8SOjtXMKageHtHTSG5pqQSVGbZW0I55g+BufFE6swwCe3NJpXpXZ3Cov6tVK9dTtnmDokn/h4+a6l/cCyv+/gh1taUVsL2NKN8vj7bF2cDSTBYII/cIreeRd7rqNg3oBGYdXdZsz6tSNQ7TXjIBYgrbqkrmhYqu3Yj52JR8MKENaBQaDH8QadyAwcuIhyUiJ2Rr+gww50bQpKWOCGubXCYDjOCrq/Xp45NaNH76PDCsLlb+yKDjj5LPxcXKpf2ospZiyqDh1H55X0cHV4cbOLVNalQS8KtF3yhR3uaTi8Cov4SpstXpLSpf1FakkoUNs1dOrsw5Jv0O1n7acQ6WhDDX3xT5a59iJXg4yrt1K6kbPOE5WSeKNQ+8e69RvJ0t/Z9iBQOzaeEZyGQ2K/Vsc7mYPrNYyWBC7N3rpkgCw0/AkJrraNyFhJ6phLW2XKfss0dsshIa8rh8K88OoI2Wh4/h8uJbCWtY3TJ7AECuzPDRYpkgUGUd0lXwtKcRwiSvdCqP0OXPhlrXLF3ZL6+CcEQ4HCaI6kuAqkOoWeE5sZqKAomlEBUZXl9LRUxM4qv387atcQV+ZxOZUFo1tWnFWAChQVm3QY6nRvy8I0JBaHhX1cf8Ytk3XegqoLw3TGCxM3RBsrKCG2N0bQC8JG87wzFdCo3Ugrk8R/Tz1DcFGmQtF5PRlIcVZv6X6VTUGAa/klZsJJvWEWH/2d07lhWZtccK3do71UG6pDSrnFv7Nj9ZGuXHPDgFOb9V6pCUOXYkrExRVv8dUjl0A4p7Bo15X76sNW0a1t1QFO3xbLnUJlF01XhSVZSmVQOsVgF45vNmiq67CkAxHYhb/hWdBWKbmcLEgHlW4w7q81vKVSu2gcqzwGo3KkRcDMV+NumPvVy544VVMLSYcWVhrXCnubbosw4hQs0+Iaa6QHD966qNu+sglP/HXyCZMPKwPtg0P5zNZbDeVTMEgGqeqFZH8ZNZnrzmQQNCp4rsLacq+nYXljh0uo2Wfetp6uXDlJnaDfn67sv9SfGi3tuvMac/UgCmx1nHZAhchkC5UMBrz9ORSwNOHe0FjcNMn8imbSB5GFIGL0DY5wrWiKw6T8ht5HZTKTIDOQ5gwusMZavf4mK/G9RFIsJOF//0AtDd5A89gPJ09MVBcQQmJe4YqfwOqHNYCQOPdkIYoge4Tnwj7E8+ywy4XyAOynOEblY3D86dbO5CIzABYg0NPRnSe9Pr+SbviwHR34ocsOpZ3RdacK35DH+xZp0B6naxQHnCW+QeuI/ywID02/U24dkV/thw7EBqTuaSJGstz8BTyxQ6PGwVBSB6HL9G+Ab46Q+n2wEJvAbKKkfC/hGLV2yMEAn6MoqkFKEnwn0t/DWRxh9bLmkKXaEa7/lFTfH0sS13/RK2hInmKPZTRzbcbIQCqkQLsuJL0w2At9Gz2lovE/tokvmD9zKTjEA6lXuav+41BrcStmYotZ4qaRt4B7XNpBucQkZv0fc2QQq0oeUlDUN1nKyEJ5VKCtnEAPgdiBS5fNNMso6f0w2ADf7sPnQGkd4NWVJQ9wY/gL6cpSqLFPEnR8GQxKDUkP/FCcVWHXrwSceZUYqHLlEJv1+yjIDGOZfxKmR2mc2NnUAAAAASUVORK5CYII=;" vertex="1" parent="1">
          <mxGeometry x="240" y="1210" width="80" height="46.67" as="geometry" />
        </mxCell>
        <mxCell id="V-wwlSEz8VEvQ7FsHcgh-158" style="edgeStyle=orthogonalEdgeStyle;rounded=0;orthogonalLoop=1;jettySize=auto;html=1;dashed=1;strokeColor=#0000FF;fontColor=#6314FF;fillColor=#e2e9f3;" edge="1" parent="1" source="V-wwlSEz8VEvQ7FsHcgh-65" target="V-wwlSEz8VEvQ7FsHcgh-59">
          <mxGeometry relative="1" as="geometry" />
        </mxCell>
        <mxCell id="V-wwlSEz8VEvQ7FsHcgh-65" value="" style="sketch=0;html=1;dashed=0;whitespace=wrap;fillColor=#2875E2;strokeColor=#ffffff;points=[[0.005,0.63,0],[0.1,0.2,0],[0.9,0.2,0],[0.5,0,0],[0.995,0.63,0],[0.72,0.99,0],[0.5,1,0],[0.28,0.99,0]];verticalLabelPosition=bottom;align=center;verticalAlign=top;shape=mxgraph.kubernetes.icon;prIcon=api" vertex="1" parent="1">
          <mxGeometry x="570" y="1370" width="100" height="88" as="geometry" />
        </mxCell>
        <mxCell id="V-wwlSEz8VEvQ7FsHcgh-66" value="" style="edgeStyle=orthogonalEdgeStyle;rounded=0;orthogonalLoop=1;jettySize=auto;html=1;fillColor=#e2e9f3;" edge="1" parent="1" source="V-wwlSEz8VEvQ7FsHcgh-67" target="V-wwlSEz8VEvQ7FsHcgh-63">
          <mxGeometry relative="1" as="geometry" />
        </mxCell>
        <mxCell id="V-wwlSEz8VEvQ7FsHcgh-161" style="edgeStyle=orthogonalEdgeStyle;rounded=0;orthogonalLoop=1;jettySize=auto;html=1;entryX=0.5;entryY=0;entryDx=0;entryDy=0;entryPerimeter=0;dashed=1;strokeColor=#0000FF;fontColor=#6314FF;fillColor=#e2e9f3;startArrow=none;" edge="1" parent="1" source="V-wwlSEz8VEvQ7FsHcgh-124" target="V-wwlSEz8VEvQ7FsHcgh-159">
          <mxGeometry relative="1" as="geometry" />
        </mxCell>
        <mxCell id="V-wwlSEz8VEvQ7FsHcgh-67" value="" style="shape=image;verticalLabelPosition=bottom;labelBackgroundColor=default;verticalAlign=top;aspect=fixed;imageAspect=0;image=data:image/png,iVBORw0KGgoAAAANSUhEUgAAANMAAADvCAMAAABfYRE9AAAAulBMVEX///8AljkAlDQAjyjn9Ove8uaEyZwAnkZDpFu75MsAlDEAmDkAkS2CwpS53cQAjSKo0bH3/Pns9/Dz+vYAjiTp9+/Y7N4AjBvK6NVKp2GXzqhLrGfN6NZksXiJx5vA4Mm03MGk17YfmkIpoE58xJNzvIhcr3FBqF+Sz6bT7d0AhgButX43oVOg1LEglj1Trm0znk5ouYBguX1WtHVtvYefzaofo0+Ux6A2qV1Zq2x4uYgqmEOu3sGMzaO65wX5AAANn0lEQVR4nN1d6WKyOBRNAtQ2xoWl4C7uWrHWrn62ff/XGq1dchGQACqZ82vmq6U5Jnc594YEobNANzRNUw39PH/tHLCrw3Vxi2anbFx6LNlAb0wUheAtqFJsdy89nCzQrdMvQnsQvJJ9qnSt6XCMdmB3DalZaW+Y4QNYk6p56ZElxrTOyCGlrV2Rce3SY0uGGmBEKG9WFD+rlx6fOGYrh3KMWH3eflC4uVIqL5Kx0l4KPAFr8KJtJ25EOJq40nRlisG9a37Z0crQ/vpnvTZxwAKUx6zsAWBEPO3vZ70+4X/GhlL49dnQ4l0Dq1fBj43OAKxK/HJ7oYHGxm0DDFkpvmj+j7Q2Fu89rHH5EgOND/caeGzn0Q74kF72HI43u18FfSof0O01WHZ02Qr7aO8dch/mNLGwSwqMSI2ID6ulPlijg2oOnYU+9fjUjpHGkZDaGvF+nShj9yzjFMANVBRO83iSoJdxhfsdhtsH7uSSmC0daEgxY+nigY9kzMlPtNI6Fr/slOuX2DmPXerzv1pZu7lgpTeugSHRjtASaj3xfp3Q8c2pBhofNY9PdkilKWoUepeCVAqvLmxWW0XBMyL1JCUUffoAZ/qYyzwltLciPxgrcZCZbYo+s7pQDNZ7E4X3WqyUPMXRu9BzXkiFtAZQNTRn6Z7nYqhQVmefKvsZRqT6R+pHmiVgVsrRTCRbqG9QUfSzqS3MSiDQWecU9x+gIkSd56y8r96F4r7YDs3ss0VtAmpcJFxRJIDeewCJI3s8g1nZJZhO13sZ/wFzOADRCi9OnC4ZfkN6O4Edt0awojHO+msD+LgGidDd42k8k94t8IuBFecnS5daTfD9keYJ46JPhVijk3x7dsfh1jmx6qdtTmhQ3FuF7FWI0VjDGtfbybPn2spnVhnXzG6gonCezlG90muUZ0Xvl9lNlW4/wQTz+my6rQHMilqdjMxK60AhcNYu36zjkzNZmJW5mFjcQ5l1ekOC8KkQmr5zX5sAQ1KWKRVFAujuQAFm9ZRqquynOxCRzmdIEEMo7pVFYrPSOqBQZXkvFytU2RsChjKpJlMhvWsgzZ2rS9Zz9BZUIXSeIImpTUDngS0v3U/RPwZgREQ0XbJXPkXhnmScYtB94t4RMSu14WuknEJRJEFrAzr3yrJ6/Hf2aPiafZlJ8/TQW2uoQsaxYotfmk8ubUg+NHw1uONmNYPNPqWZ0GmeELcdaBmFaiQr4+WVT4QUfO5EKB5qG7CUrGU5/Iv3SXMnt/1wvTwA0aq/DP7udXsNexTX50/tBLAY+Lb/BCxAu0SB86/Hb/ZdBho0K8vzN1XMhsd/gDnVXBoSROsRLCxrDFTIbAmKn5WzSPP0MMt9IO7x6E+tdvllR2g9By3VuJgCcW8VftZfi58ky2vk3JAgtA0viNj3vgx18keJMbGueQ6gtx454cpKXzPS+U0cqLKWjdEOuvv6uwBJf6erZt73/xO2lMiQAMzO72YnZbSdqOq3E2eD/O94DMdsU/yemqK6FVp7TsST++0QvfE9UU4LmU/7WSOx5VVe0d5PlDVFxuvXf5JrOcJsBHr7yVGukFrYT9O1jB4P4CYbTtp0tGq3V6PPblYldG0x2j3wI8HzsuBkLAYKJXQHorDXRQZvC9prhX09j1Hxtmp6TttAB97WIhVaSrmpwOhwGalCRTd8pOZkdA5fbbIKb2kinDnm5c5WlHbESKXlZI4C3j/bpvRpikxNxfc4+in0+2k5dRwcCGIlbroOKwdPuxOqiafkNAuhtDOrhKRq74ev6RFPZPWl5PQYtPK+xzFI5ik6gY8U2UGXjpP2HkppRypRpJscTtPWojYCj0jHaRH4NucP2DpB660W+EhSFxhVOk6dSE57CSMI99BD7Eb1KuAl0nEq0aABcDP1JsypGsgJFwU8zmk54aL7/+NEqKhHzz8nTAqCzk8CTpj9E3N+MnDCbC7k/KTghFnn/8cJ06h3JCXlRJhAU04STpi8xyclCyfMlrGLCtJwwnQV1/nJwwkrz/8/TtiJ+V6CTJwwjjcqqTgRL1YpSSpOmK7j1Inl4rTV8v8/TliJUVCVjVOcfp18nPDRvqp0nDBRjmV+ueUUXiKj3pGOR1459V/DS85sHq3l88qJ2s1wUsom0vnllZOjGpNwS7MiZW9+Oe0OKwglpbhyckKuv9n3B9KPcH555oQWwYPb/43wdDbXnFBgp3cPZRzq/PLNyWxHkBrJyQlpXoTzCytk5pwT0gLazT9gIR3avHNC3eCjbr/+zkNwOpt7TqgRkSR5gTW//HNCpfAwFSx7JeBkziOc35OcnJBRj9gWErArXwZOaFYM9xP3rpycUDmCFD1IkuTghKrhUYpQv/OThJMetiEO794V8Wl5STgh/dEK/NzX3yvB6qwsnJAxCXd+vsxPGk7IXofblOPKyQnV7kM5EcpnfhJxQr27cFJ8F0cmTmgakflxbwpLxUlfRfiJ9m+SJBUnpC7jyF65OCHtPkL2LuTkhGYkPPPrl+XkhD7CSVGvJScnPXhD/BeYZ0jJCenPx2SvfJwQ+hdB6lmXk1NUIZM05OSEuv1I5yclJ1QthnHCRLkNfrch75zQIqI1tX4OfmTeOaFRRGsqZGHmnpOxDJ+pEOSeE9LWoptF8s8J1SJa2LJyQt1wk5KWE3oLr/lJywldhSdJ0nIyHkX8hBycts5PwE9Iwglp4eUxaTmhbrjslZYT6kVUXWTlpA/jOj95OCE9buYnESeEBvFmSipOswgtLysnVI7YlCQrJ9SIM1GScUKd8G6vtJzQ+Dgp6Thpy6POTzpOyL4+5ifk44S6Ea945IOTJX4avXtM9goc3piO0zT4kJtCggPmSpGkiCfwynw6TrPAXQ/sMcFhdeYmKkzRtsDJGinPofKCJspyRQntYEQ5PypyAE9KTkEvMJBJstMjtUK4n+iLPDIlJz1gv6HQERg8bBo2U47QYXVpz6qzD7pJylyMCQcNnDTOPfJR6DGpz0ks+0hZ9RRHJBpvOEAjkpXY0Tvpz7MEZ57jSsp7zGvPlo8Vq3wKHqWWwbmj6pNCKfkCC9pdLQbdfqbs53mEMqUpfIpkJufDzob/rj3vuj5eZHOK+82wXd8+cPvE9jTBtGd05q2uzWZ2lqdp32r2bKYle2JGnHKFP05mc5+c9GU9j/0XQ/rL6XvbzLEXnXOP1sM+ulRchF6+nSgdSX3at1v/DpjW1oi6P3sxmJc0u7k8tHn/O7+nE4N/VYmwQcSlQzmGMcW/ioW5u3/pcunI3cqWjpVRLvzJBDreB4IGpzVZvySZU+/OwRuZP4ev8gKasAeZzMpcgbsu7/5qMg3MKWhieV1JFqDxWeEZ0T5fkumOwaVDlVWu7+j6hu7Ca3CLJRiNbl981yzm/y6e2sbiV5ezPFxd6nOF/wh9OOlN8alhju75ZacUF4F5kLYEZuUM8mtWRs8Bd6W9D8M+qbvwVnq6SXkTw4mgu0u+cEXxKOr4bPWl6Lu9NIeZbWuOuWVHnPWx9aSt4HWfA/cs44wPY9jnLYT1ezFK2rN/Rfg1tHJkVoZLgSH1S/FEsV4FV10wkvaCk8ygl5cVYPDz+H0PtQHdysM0F1M1a4NEaOuYhTop6jMBq/ZB9PaY7GFcYa5eux3eVPgRN23+2nDiPF3WrIwq5v13Qv1gvkzAAvSnU2dFtw0ip5XkKvQvqB0+7SXUu8p0nPGhPQNDsgZuiju0bp9AuqRcRNybUwdkovdi9w0dojwGMdhJPOlJYVY9oCj6o/SKwajCO6qL572jujuHrmqVTWKtlYAKYd7i+O9khG0iBFpCxWpWl9H5VUileB6/bn6C0E/fxSNSFNwlvH48MrvPBmZ5AiISHmVdUFDdAlAh/c6JbzyttQlIhAKkeXqozyDsMU/kEi1R3I6gorCqJ1rtrXYR+KDXU5mVsYCKYtDJzDUcorfkPStlJ1EhZrfJX+dIyYmNV23wgnGrQkqZf4OzNgaGNDl97mI+AQ+Ydc3MHIKwQVjvLGFj65FAtGpmd0Oy0cMgERoMz3WftF6FRV3rLaPIUV6CErc1OmfRQJ2CbSzME7xvNBA2qHHhyrp8Qm8XBOORAQGA0/bt9SsCFcUlaiDlMQbRalxLMQij2q9wL/mzwfwyF7Mb7gAkZMXkLUa3zW93I5XVuVXaH7Qp48W94iXbS6WNQLHYKpzbkHzDWUFxXxDPNI0rBpp976k3maXGxz8KhaiY/zXLcAH3N3lo5hnVAYyTImbVBYaErXZ28TsdjJEDi7Zx0yV9xSsKbDlpalxZQ2snaDGqUwUE7v7nxQ0Jwq3DmtlRoW1218CQ8tM9+YP6MvB17iOjZmtOYSKc+MLxk0JdwXrpe7hZ6at73pAY/siRIUHMxrxZbeVcsFkZPQLbWwkuez4fdh1xoBY2AWbl7+6fVVEkgU/cH3buWxvi65rndtn9QV1BFdLnS9FmCft+KAGjHWq+DTGTHxVilBWYcowkYYR2/RVQFqZkb1buGPQo2CoviVA8qA0HmJVX+ljArnnlVQZDgvCpEEpA+k77+dieIIruv7CDVxiWbdftL4yeF/RKO2HzfCZC8aBO7w5eFrQKeVIUSaDBdGkrzUO3D0qE8vhXJm3TvEtuHMkQt9Un6liKYjnFklwRKQqmWpt+Thcz9Sz++z+cUizQWILvCQAAAABJRU5ErkJggg==;" vertex="1" parent="1">
          <mxGeometry x="253.52" y="1070" width="52.97" height="60" as="geometry" />
        </mxCell>
        <mxCell id="V-wwlSEz8VEvQ7FsHcgh-68" style="edgeStyle=none;rounded=0;orthogonalLoop=1;jettySize=auto;html=1;strokeColor=#001224;fillColor=#e2e9f3;" edge="1" parent="1" source="V-wwlSEz8VEvQ7FsHcgh-69" target="V-wwlSEz8VEvQ7FsHcgh-67">
          <mxGeometry relative="1" as="geometry" />
        </mxCell>
        <mxCell id="V-wwlSEz8VEvQ7FsHcgh-69" value="" style="outlineConnect=0;dashed=0;verticalLabelPosition=bottom;verticalAlign=top;align=center;html=1;shape=mxgraph.aws3.application_load_balancer;fillColor=#F58534;gradientColor=none;" vertex="1" parent="1">
          <mxGeometry x="253.51" y="970" width="49" height="40" as="geometry" />
        </mxCell>
        <mxCell id="V-wwlSEz8VEvQ7FsHcgh-70" value="" style="shape=image;html=1;verticalAlign=top;verticalLabelPosition=bottom;labelBackgroundColor=#ffffff;imageAspect=0;aspect=fixed;image=https://cdn1.iconfinder.com/data/icons/KDE_Crystal_Diamond_2.5_Classical_Mod/128x128/mimetypes/html.png;fillColor=#e2e9f3;" vertex="1" parent="1">
          <mxGeometry x="80" y="920" width="40" height="40" as="geometry" />
        </mxCell>
        <mxCell id="V-wwlSEz8VEvQ7FsHcgh-71" style="edgeStyle=none;rounded=0;orthogonalLoop=1;jettySize=auto;html=1;entryX=0.5;entryY=0;entryDx=0;entryDy=0;entryPerimeter=0;strokeColor=#001326;fillColor=#e2e9f3;exitX=0.5;exitY=1;exitDx=0;exitDy=0;" edge="1" parent="1" source="V-wwlSEz8VEvQ7FsHcgh-72" target="V-wwlSEz8VEvQ7FsHcgh-69">
          <mxGeometry relative="1" as="geometry" />
        </mxCell>
        <mxCell id="V-wwlSEz8VEvQ7FsHcgh-72" value="https://&amp;lt;API-URL&amp;gt;/communication" style="rounded=1;whiteSpace=wrap;html=1;fillColor=#fff2cc;strokeColor=#d6b656;" vertex="1" parent="1">
          <mxGeometry x="147.02" y="930" width="261.99" height="20" as="geometry" />
        </mxCell>
        <mxCell id="V-wwlSEz8VEvQ7FsHcgh-73" value="" style="rounded=0;whiteSpace=wrap;html=1;" vertex="1" parent="1">
          <mxGeometry x="710" y="1035" width="420" height="175" as="geometry" />
        </mxCell>
        <mxCell id="V-wwlSEz8VEvQ7FsHcgh-74" value="" style="endArrow=classic;html=1;rounded=0;fillColor=#e2e9f3;dashed=1;strokeColor=#007FFF;" edge="1" parent="1" source="V-wwlSEz8VEvQ7FsHcgh-76" target="V-wwlSEz8VEvQ7FsHcgh-63">
          <mxGeometry width="50" height="50" relative="1" as="geometry">
            <mxPoint x="530" y="1250" as="sourcePoint" />
            <mxPoint x="390" y="1290" as="targetPoint" />
            <Array as="points">
              <mxPoint x="500" y="1250" />
              <mxPoint x="400" y="1250" />
            </Array>
          </mxGeometry>
        </mxCell>
        <mxCell id="V-wwlSEz8VEvQ7FsHcgh-75" value="" style="sketch=0;html=1;dashed=0;whitespace=wrap;fillColor=#2875E2;strokeColor=#ffffff;points=[[0.005,0.63,0],[0.1,0.2,0],[0.9,0.2,0],[0.5,0,0],[0.995,0.63,0],[0.72,0.99,0],[0.5,1,0],[0.28,0.99,0]];verticalLabelPosition=bottom;align=center;verticalAlign=top;shape=mxgraph.kubernetes.icon;prIcon=pod" vertex="1" parent="1">
          <mxGeometry x="202.66" y="1228.67" width="47.34" height="41.33" as="geometry" />
        </mxCell>
        <mxCell id="V-wwlSEz8VEvQ7FsHcgh-76" value="&lt;ul&gt;&lt;li&gt;&lt;b&gt;Oneapi Config - (Registration of API)&lt;/b&gt;&lt;/li&gt;&lt;ul&gt;&lt;li&gt;Team&lt;/li&gt;&lt;li&gt;API&lt;/li&gt;&lt;li&gt;Version &lt;/li&gt;&lt;ul&gt;&lt;li&gt;Identity Provider (APIKey/GAS-OIDC)&lt;/li&gt;&lt;li&gt;Authorize Gateways once version is configured&lt;/li&gt;&lt;li&gt;Environments&amp;nbsp; (Dev,Test,Prod etc)&lt;/li&gt;&lt;/ul&gt;&lt;li&gt;Gateway:&lt;/li&gt;&lt;ul&gt;&lt;li&gt;&lt;b style=&quot;border-color: var(--border-color); background-color: initial;&quot;&gt;&lt;font style=&quot;border-color: var(--border-color);&quot; color=&quot;#6314ff&quot;&gt;Key &amp;amp; Secret&lt;/font&gt;&lt;/b&gt;&lt;/li&gt;&lt;/ul&gt;&lt;/ul&gt;&lt;/ul&gt;" style="text;html=1;align=left;verticalAlign=middle;whiteSpace=wrap;rounded=0;" vertex="1" parent="1">
          <mxGeometry x="720" y="1042.5" width="400" height="157.5" as="geometry" />
        </mxCell>
        <mxCell id="V-wwlSEz8VEvQ7FsHcgh-77" value="Authentication/&lt;br&gt;Authorization" style="text;html=1;strokeColor=none;fillColor=none;align=center;verticalAlign=middle;whiteSpace=wrap;rounded=0;fontStyle=1" vertex="1" parent="1">
          <mxGeometry x="406.35" y="1040" width="92.66" height="30" as="geometry" />
        </mxCell>
        <mxCell id="V-wwlSEz8VEvQ7FsHcgh-78" value="" style="sketch=0;html=1;dashed=0;whitespace=wrap;fillColor=#2875E2;strokeColor=#ffffff;points=[[0.005,0.63,0],[0.1,0.2,0],[0.9,0.2,0],[0.5,0,0],[0.995,0.63,0],[0.72,0.99,0],[0.5,1,0],[0.28,0.99,0]];verticalLabelPosition=bottom;align=center;verticalAlign=top;shape=mxgraph.kubernetes.icon;prIcon=pod" vertex="1" parent="1">
          <mxGeometry x="368.3" y="260" width="27" height="30" as="geometry" />
        </mxCell>
        <mxCell id="V-wwlSEz8VEvQ7FsHcgh-79" value="" style="sketch=0;html=1;dashed=0;whitespace=wrap;fillColor=#2875E2;strokeColor=#ffffff;points=[[0.005,0.63,0],[0.1,0.2,0],[0.9,0.2,0],[0.5,0,0],[0.995,0.63,0],[0.72,0.99,0],[0.5,1,0],[0.28,0.99,0]];verticalLabelPosition=bottom;align=center;verticalAlign=top;shape=mxgraph.kubernetes.icon;prIcon=pod" vertex="1" parent="1">
          <mxGeometry x="368.64" y="360" width="27" height="30" as="geometry" />
        </mxCell>
        <mxCell id="V-wwlSEz8VEvQ7FsHcgh-87" value="" style="rounded=0;whiteSpace=wrap;html=1;strokeColor=#6c8ebf;dashed=1;fillColor=#dae8fc;" vertex="1" parent="1">
          <mxGeometry x="90" y="1980" width="610" height="448" as="geometry" />
        </mxCell>
        <mxCell id="V-wwlSEz8VEvQ7FsHcgh-88" value="" style="aspect=fixed;html=1;points=[];align=center;image;fontSize=12;image=img/lib/azure2/containers/Kubernetes_Services.svg;fillColor=#e2e9f3;" vertex="1" parent="1">
          <mxGeometry x="101.69" y="2410" width="45.33" height="40" as="geometry" />
        </mxCell>
        <mxCell id="V-wwlSEz8VEvQ7FsHcgh-131" style="edgeStyle=orthogonalEdgeStyle;rounded=0;orthogonalLoop=1;jettySize=auto;html=1;dashed=1;strokeColor=#0000FF;fontColor=#6314FF;fillColor=#e2e9f3;" edge="1" parent="1" source="V-wwlSEz8VEvQ7FsHcgh-89">
          <mxGeometry relative="1" as="geometry">
            <mxPoint x="830" y="1910" as="targetPoint" />
            <Array as="points">
              <mxPoint x="870" y="2163" />
              <mxPoint x="870" y="1910" />
            </Array>
          </mxGeometry>
        </mxCell>
        <mxCell id="V-wwlSEz8VEvQ7FsHcgh-134" style="edgeStyle=orthogonalEdgeStyle;rounded=0;orthogonalLoop=1;jettySize=auto;html=1;entryX=0.353;entryY=1;entryDx=0;entryDy=0;entryPerimeter=0;dashed=1;strokeColor=#001224;fontColor=#6314FF;fillColor=#e2e9f3;" edge="1" parent="1" source="V-wwlSEz8VEvQ7FsHcgh-89" target="V-wwlSEz8VEvQ7FsHcgh-108">
          <mxGeometry relative="1" as="geometry">
            <Array as="points">
              <mxPoint x="565" y="2150" />
            </Array>
          </mxGeometry>
        </mxCell>
        <mxCell id="V-wwlSEz8VEvQ7FsHcgh-89" value="&lt;b&gt;oneApi&lt;/b&gt;" style="rounded=1;whiteSpace=wrap;html=1;fillColor=#d5e8d4;strokeColor=#82b366;" vertex="1" parent="1">
          <mxGeometry x="730" y="2133.34" width="120" height="60" as="geometry" />
        </mxCell>
        <mxCell id="V-wwlSEz8VEvQ7FsHcgh-91" style="rounded=0;orthogonalLoop=1;jettySize=auto;html=1;fillColor=#e2e9f3;entryX=0.11;entryY=0.489;entryDx=0;entryDy=0;entryPerimeter=0;" edge="1" parent="1" source="V-wwlSEz8VEvQ7FsHcgh-93" target="V-wwlSEz8VEvQ7FsHcgh-95">
          <mxGeometry relative="1" as="geometry">
            <mxPoint x="710" y="2350" as="targetPoint" />
            <Array as="points" />
          </mxGeometry>
        </mxCell>
        <mxCell id="V-wwlSEz8VEvQ7FsHcgh-92" style="edgeStyle=none;rounded=0;orthogonalLoop=1;jettySize=auto;html=1;fillColor=#e2e9f3;startArrow=none;" edge="1" parent="1" source="V-wwlSEz8VEvQ7FsHcgh-106" target="V-wwlSEz8VEvQ7FsHcgh-94">
          <mxGeometry relative="1" as="geometry" />
        </mxCell>
        <mxCell id="V-wwlSEz8VEvQ7FsHcgh-113" style="edgeStyle=none;rounded=0;orthogonalLoop=1;jettySize=auto;html=1;strokeColor=#001224;fontColor=#6314FF;fillColor=#e2e9f3;" edge="1" parent="1" source="V-wwlSEz8VEvQ7FsHcgh-93" target="V-wwlSEz8VEvQ7FsHcgh-89">
          <mxGeometry relative="1" as="geometry" />
        </mxCell>
        <mxCell id="V-wwlSEz8VEvQ7FsHcgh-93" value="" style="shape=image;verticalLabelPosition=bottom;labelBackgroundColor=default;verticalAlign=top;aspect=fixed;imageAspect=0;image=data:image/png,iVBORw0KGgoAAAANSUhEUgAAADAAAAAcCAYAAAFQawxcAAAAAXNSR0IArs4c6QAAAARnQU1BAACxjwv8YQUAAAAJcEhZcwAAFxEAABcRAcom8z8AAAYeSURBVEhLzVdrbNNVFP8rgW3tvxJCljjaf9u5D/hMCEMCa9exhSULiTFRMJAAIm06YGLiB9QPJsTEhA8GCepG241tlAHbcIDrv6/1zfqgLza7BzAlm4l8kkR56DQK13Nvb7t2W8deOn7JSfu/99xz7rn3nhczK7DWRqS0ahD9TELWm0AF5obPRL6zExMSd9jBeUJKWdcoEvnPZ6/AUDjUW+jfbGzj3y6jf5MQ24J7pe4oYi2GbDFSdwxJ22+SwSmTk1EV+YBsvcJ3cGZGAv7YKiyRtT5BKtkCkCw0hDhn/GPW1XqfLHS3zkLLXIH3rrSo0euOPavpUG6IfG2I9Rofq9wHUHmPdubtrOH960QeIzljga35PB2eHpwn2oaN5tzxUfwiyCLesI5OZ0Mevpk+Ifwfj5ETAiIMk0GYg4NI3BIflLbfQkwnWibgv3meLOINf1O2uaO0WyuovHaYvIJyp3aADi8SOjtXMKageHtHTSG5pqQSVGbZW0I55g+BufFE6swwCe3NJpXpXZ3Cov6tVK9dTtnmDokn/h4+a6l/cCyv+/gh1taUVsL2NKN8vj7bF2cDSTBYII/cIreeRd7rqNg3oBGYdXdZsz6tSNQ7TXjIBYgrbqkrmhYqu3Yj52JR8MKENaBQaDH8QadyAwcuIhyUiJ2Rr+gww50bQpKWOCGubXCYDjOCrq/Xp45NaNH76PDCsLlb+yKDjj5LPxcXKpf2ospZiyqDh1H55X0cHV4cbOLVNalQS8KtF3yhR3uaTi8Cov4SpstXpLSpf1FakkoUNs1dOrsw5Jv0O1n7acQ6WhDDX3xT5a59iJXg4yrt1K6kbPOE5WSeKNQ+8e69RvJ0t/Z9iBQOzaeEZyGQ2K/Vsc7mYPrNYyWBC7N3rpkgCw0/AkJrraNyFhJ6phLW2XKfss0dsshIa8rh8K88OoI2Wh4/h8uJbCWtY3TJ7AECuzPDRYpkgUGUd0lXwtKcRwiSvdCqP0OXPhlrXLF3ZL6+CcEQ4HCaI6kuAqkOoWeE5sZqKAomlEBUZXl9LRUxM4qv387atcQV+ZxOZUFo1tWnFWAChQVm3QY6nRvy8I0JBaHhX1cf8Ytk3XegqoLw3TGCxM3RBsrKCG2N0bQC8JG87wzFdCo3Ugrk8R/Tz1DcFGmQtF5PRlIcVZv6X6VTUGAa/klZsJJvWEWH/2d07lhWZtccK3do71UG6pDSrnFv7Nj9ZGuXHPDgFOb9V6pCUOXYkrExRVv8dUjl0A4p7Bo15X76sNW0a1t1QFO3xbLnUJlF01XhSVZSmVQOsVgF45vNmiq67CkAxHYhb/hWdBWKbmcLEgHlW4w7q81vKVSu2gcqzwGo3KkRcDMV+NumPvVy544VVMLSYcWVhrXCnubbosw4hQs0+Iaa6QHD966qNu+sglP/HXyCZMPKwPtg0P5zNZbDeVTMEgGqeqFZH8ZNZnrzmQQNCp4rsLacq+nYXljh0uo2Wfetp6uXDlJnaDfn67sv9SfGi3tuvMac/UgCmx1nHZAhchkC5UMBrz9ORSwNOHe0FjcNMn8imbSB5GFIGL0DY5wrWiKw6T8ht5HZTKTIDOQ5gwusMZavf4mK/G9RFIsJOF//0AtDd5A89gPJ09MVBcQQmJe4YqfwOqHNYCQOPdkIYoge4Tnwj7E8+ywy4XyAOynOEblY3D86dbO5CIzABYg0NPRnSe9Pr+SbviwHR34ocsOpZ3RdacK35DH+xZp0B6naxQHnCW+QeuI/ywID02/U24dkV/thw7EBqTuaSJGstz8BTyxQ6PGwVBSB6HL9G+Ab46Q+n2wEJvAbKKkfC/hGLV2yMEAn6MoqkFKEnwn0t/DWRxh9bLmkKXaEa7/lFTfH0sS13/RK2hInmKPZTRzbcbIQCqkQLsuJL0w2At9Gz2lovE/tokvmD9zKTjEA6lXuav+41BrcStmYotZ4qaRt4B7XNpBucQkZv0fc2QQq0oeUlDUN1nKyEJ5VKCtnEAPgdiBS5fNNMso6f0w2ADf7sPnQGkd4NWVJQ9wY/gL6cpSqLFPEnR8GQxKDUkP/FCcVWHXrwSceZUYqHLlEJv1+yjIDGOZfxKmR2mc2NnUAAAAASUVORK5CYII=;" vertex="1" parent="1">
          <mxGeometry x="330" y="2140" width="80" height="46.67" as="geometry" />
        </mxCell>
        <mxCell id="V-wwlSEz8VEvQ7FsHcgh-94" value="" style="sketch=0;aspect=fixed;html=1;points=[];align=center;image;fontSize=12;image=img/lib/mscae/Cache_Redis_Product.svg;fillColor=#e2e9f3;" vertex="1" parent="1">
          <mxGeometry x="346.18" y="2340" width="47.63" height="40" as="geometry" />
        </mxCell>
        <mxCell id="V-wwlSEz8VEvQ7FsHcgh-95" value="" style="sketch=0;html=1;dashed=0;whitespace=wrap;fillColor=#2875E2;strokeColor=#ffffff;points=[[0.005,0.63,0],[0.1,0.2,0],[0.9,0.2,0],[0.5,0,0],[0.995,0.63,0],[0.72,0.99,0],[0.5,1,0],[0.28,0.99,0]];verticalLabelPosition=bottom;align=center;verticalAlign=top;shape=mxgraph.kubernetes.icon;prIcon=api" vertex="1" parent="1">
          <mxGeometry x="580" y="2260" width="80" height="88" as="geometry" />
        </mxCell>
        <mxCell id="V-wwlSEz8VEvQ7FsHcgh-96" value="" style="edgeStyle=orthogonalEdgeStyle;rounded=0;orthogonalLoop=1;jettySize=auto;html=1;fillColor=#e2e9f3;" edge="1" parent="1" source="V-wwlSEz8VEvQ7FsHcgh-97" target="V-wwlSEz8VEvQ7FsHcgh-93">
          <mxGeometry relative="1" as="geometry" />
        </mxCell>
        <mxCell id="V-wwlSEz8VEvQ7FsHcgh-97" value="" style="shape=image;verticalLabelPosition=bottom;labelBackgroundColor=default;verticalAlign=top;aspect=fixed;imageAspect=0;image=data:image/png,iVBORw0KGgoAAAANSUhEUgAAANMAAADvCAMAAABfYRE9AAAAulBMVEX///8AljkAlDQAjyjn9Ove8uaEyZwAnkZDpFu75MsAlDEAmDkAkS2CwpS53cQAjSKo0bH3/Pns9/Dz+vYAjiTp9+/Y7N4AjBvK6NVKp2GXzqhLrGfN6NZksXiJx5vA4Mm03MGk17YfmkIpoE58xJNzvIhcr3FBqF+Sz6bT7d0AhgButX43oVOg1LEglj1Trm0znk5ouYBguX1WtHVtvYefzaofo0+Ux6A2qV1Zq2x4uYgqmEOu3sGMzaO65wX5AAANn0lEQVR4nN1d6WKyOBRNAtQ2xoWl4C7uWrHWrn62ff/XGq1dchGQACqZ82vmq6U5Jnc594YEobNANzRNUw39PH/tHLCrw3Vxi2anbFx6LNlAb0wUheAtqFJsdy89nCzQrdMvQnsQvJJ9qnSt6XCMdmB3DalZaW+Y4QNYk6p56ZElxrTOyCGlrV2Rce3SY0uGGmBEKG9WFD+rlx6fOGYrh3KMWH3eflC4uVIqL5Kx0l4KPAFr8KJtJ25EOJq40nRlisG9a37Z0crQ/vpnvTZxwAKUx6zsAWBEPO3vZ70+4X/GhlL49dnQ4l0Dq1fBj43OAKxK/HJ7oYHGxm0DDFkpvmj+j7Q2Fu89rHH5EgOND/caeGzn0Q74kF72HI43u18FfSof0O01WHZ02Qr7aO8dch/mNLGwSwqMSI2ID6ulPlijg2oOnYU+9fjUjpHGkZDaGvF+nShj9yzjFMANVBRO83iSoJdxhfsdhtsH7uSSmC0daEgxY+nigY9kzMlPtNI6Fr/slOuX2DmPXerzv1pZu7lgpTeugSHRjtASaj3xfp3Q8c2pBhofNY9PdkilKWoUepeCVAqvLmxWW0XBMyL1JCUUffoAZ/qYyzwltLciPxgrcZCZbYo+s7pQDNZ7E4X3WqyUPMXRu9BzXkiFtAZQNTRn6Z7nYqhQVmefKvsZRqT6R+pHmiVgVsrRTCRbqG9QUfSzqS3MSiDQWecU9x+gIkSd56y8r96F4r7YDs3ss0VtAmpcJFxRJIDeewCJI3s8g1nZJZhO13sZ/wFzOADRCi9OnC4ZfkN6O4Edt0awojHO+msD+LgGidDd42k8k94t8IuBFecnS5daTfD9keYJ46JPhVijk3x7dsfh1jmx6qdtTmhQ3FuF7FWI0VjDGtfbybPn2spnVhnXzG6gonCezlG90muUZ0Xvl9lNlW4/wQTz+my6rQHMilqdjMxK60AhcNYu36zjkzNZmJW5mFjcQ5l1ekOC8KkQmr5zX5sAQ1KWKRVFAujuQAFm9ZRqquynOxCRzmdIEEMo7pVFYrPSOqBQZXkvFytU2RsChjKpJlMhvWsgzZ2rS9Zz9BZUIXSeIImpTUDngS0v3U/RPwZgREQ0XbJXPkXhnmScYtB94t4RMSu14WuknEJRJEFrAzr3yrJ6/Hf2aPiafZlJ8/TQW2uoQsaxYotfmk8ubUg+NHw1uONmNYPNPqWZ0GmeELcdaBmFaiQr4+WVT4QUfO5EKB5qG7CUrGU5/Iv3SXMnt/1wvTwA0aq/DP7udXsNexTX50/tBLAY+Lb/BCxAu0SB86/Hb/ZdBho0K8vzN1XMhsd/gDnVXBoSROsRLCxrDFTIbAmKn5WzSPP0MMt9IO7x6E+tdvllR2g9By3VuJgCcW8VftZfi58ky2vk3JAgtA0viNj3vgx18keJMbGueQ6gtx454cpKXzPS+U0cqLKWjdEOuvv6uwBJf6erZt73/xO2lMiQAMzO72YnZbSdqOq3E2eD/O94DMdsU/yemqK6FVp7TsST++0QvfE9UU4LmU/7WSOx5VVe0d5PlDVFxuvXf5JrOcJsBHr7yVGukFrYT9O1jB4P4CYbTtp0tGq3V6PPblYldG0x2j3wI8HzsuBkLAYKJXQHorDXRQZvC9prhX09j1Hxtmp6TttAB97WIhVaSrmpwOhwGalCRTd8pOZkdA5fbbIKb2kinDnm5c5WlHbESKXlZI4C3j/bpvRpikxNxfc4+in0+2k5dRwcCGIlbroOKwdPuxOqiafkNAuhtDOrhKRq74ev6RFPZPWl5PQYtPK+xzFI5ik6gY8U2UGXjpP2HkppRypRpJscTtPWojYCj0jHaRH4NucP2DpB660W+EhSFxhVOk6dSE57CSMI99BD7Eb1KuAl0nEq0aABcDP1JsypGsgJFwU8zmk54aL7/+NEqKhHzz8nTAqCzk8CTpj9E3N+MnDCbC7k/KTghFnn/8cJ06h3JCXlRJhAU04STpi8xyclCyfMlrGLCtJwwnQV1/nJwwkrz/8/TtiJ+V6CTJwwjjcqqTgRL1YpSSpOmK7j1Inl4rTV8v8/TliJUVCVjVOcfp18nPDRvqp0nDBRjmV+ueUUXiKj3pGOR1459V/DS85sHq3l88qJ2s1wUsom0vnllZOjGpNwS7MiZW9+Oe0OKwglpbhyckKuv9n3B9KPcH555oQWwYPb/43wdDbXnFBgp3cPZRzq/PLNyWxHkBrJyQlpXoTzCytk5pwT0gLazT9gIR3avHNC3eCjbr/+zkNwOpt7TqgRkSR5gTW//HNCpfAwFSx7JeBkziOc35OcnJBRj9gWErArXwZOaFYM9xP3rpycUDmCFD1IkuTghKrhUYpQv/OThJMetiEO794V8Wl5STgh/dEK/NzX3yvB6qwsnJAxCXd+vsxPGk7IXofblOPKyQnV7kM5EcpnfhJxQr27cFJ8F0cmTmgakflxbwpLxUlfRfiJ9m+SJBUnpC7jyF65OCHtPkL2LuTkhGYkPPPrl+XkhD7CSVGvJScnPXhD/BeYZ0jJCenPx2SvfJwQ+hdB6lmXk1NUIZM05OSEuv1I5yclJ1QthnHCRLkNfrch75zQIqI1tX4OfmTeOaFRRGsqZGHmnpOxDJ+pEOSeE9LWoptF8s8J1SJa2LJyQt1wk5KWE3oLr/lJywldhSdJ0nIyHkX8hBycts5PwE9Iwglp4eUxaTmhbrjslZYT6kVUXWTlpA/jOj95OCE9buYnESeEBvFmSipOswgtLysnVI7YlCQrJ9SIM1GScUKd8G6vtJzQ+Dgp6Thpy6POTzpOyL4+5ifk44S6Ea945IOTJX4avXtM9goc3piO0zT4kJtCggPmSpGkiCfwynw6TrPAXQ/sMcFhdeYmKkzRtsDJGinPofKCJspyRQntYEQ5PypyAE9KTkEvMJBJstMjtUK4n+iLPDIlJz1gv6HQERg8bBo2U47QYXVpz6qzD7pJylyMCQcNnDTOPfJR6DGpz0ks+0hZ9RRHJBpvOEAjkpXY0Tvpz7MEZ57jSsp7zGvPlo8Vq3wKHqWWwbmj6pNCKfkCC9pdLQbdfqbs53mEMqUpfIpkJufDzob/rj3vuj5eZHOK+82wXd8+cPvE9jTBtGd05q2uzWZ2lqdp32r2bKYle2JGnHKFP05mc5+c9GU9j/0XQ/rL6XvbzLEXnXOP1sM+ulRchF6+nSgdSX3at1v/DpjW1oi6P3sxmJc0u7k8tHn/O7+nE4N/VYmwQcSlQzmGMcW/ioW5u3/pcunI3cqWjpVRLvzJBDreB4IGpzVZvySZU+/OwRuZP4ev8gKasAeZzMpcgbsu7/5qMg3MKWhieV1JFqDxWeEZ0T5fkumOwaVDlVWu7+j6hu7Ca3CLJRiNbl981yzm/y6e2sbiV5ezPFxd6nOF/wh9OOlN8alhju75ZacUF4F5kLYEZuUM8mtWRs8Bd6W9D8M+qbvwVnq6SXkTw4mgu0u+cEXxKOr4bPWl6Lu9NIeZbWuOuWVHnPWx9aSt4HWfA/cs44wPY9jnLYT1ezFK2rN/Rfg1tHJkVoZLgSH1S/FEsV4FV10wkvaCk8ygl5cVYPDz+H0PtQHdysM0F1M1a4NEaOuYhTop6jMBq/ZB9PaY7GFcYa5eux3eVPgRN23+2nDiPF3WrIwq5v13Qv1gvkzAAvSnU2dFtw0ip5XkKvQvqB0+7SXUu8p0nPGhPQNDsgZuiju0bp9AuqRcRNybUwdkovdi9w0dojwGMdhJPOlJYVY9oCj6o/SKwajCO6qL572jujuHrmqVTWKtlYAKYd7i+O9khG0iBFpCxWpWl9H5VUileB6/bn6C0E/fxSNSFNwlvH48MrvPBmZ5AiISHmVdUFDdAlAh/c6JbzyttQlIhAKkeXqozyDsMU/kEi1R3I6gorCqJ1rtrXYR+KDXU5mVsYCKYtDJzDUcorfkPStlJ1EhZrfJX+dIyYmNV23wgnGrQkqZf4OzNgaGNDl97mI+AQ+Ydc3MHIKwQVjvLGFj65FAtGpmd0Oy0cMgERoMz3WftF6FRV3rLaPIUV6CErc1OmfRQJ2CbSzME7xvNBA2qHHhyrp8Qm8XBOORAQGA0/bt9SsCFcUlaiDlMQbRalxLMQij2q9wL/mzwfwyF7Mb7gAkZMXkLUa3zW93I5XVuVXaH7Qp48W94iXbS6WNQLHYKpzbkHzDWUFxXxDPNI0rBpp976k3maXGxz8KhaiY/zXLcAH3N3lo5hnVAYyTImbVBYaErXZ28TsdjJEDi7Zx0yV9xSsKbDlpalxZQ2snaDGqUwUE7v7nxQ0Jwq3DmtlRoW1218CQ8tM9+YP6MvB17iOjZmtOYSKc+MLxk0JdwXrpe7hZ6at73pAY/siRIUHMxrxZbeVcsFkZPQLbWwkuez4fdh1xoBY2AWbl7+6fVVEkgU/cH3buWxvi65rndtn9QV1BFdLnS9FmCft+KAGjHWq+DTGTHxVilBWYcowkYYR2/RVQFqZkb1buGPQo2CoviVA8qA0HmJVX+ljArnnlVQZDgvCpEEpA+k77+dieIIruv7CDVxiWbdftL4yeF/RKO2HzfCZC8aBO7w5eFrQKeVIUSaDBdGkrzUO3D0qE8vhXJm3TvEtuHMkQt9Un6liKYjnFklwRKQqmWpt+Thcz9Sz++z+cUizQWILvCQAAAABJRU5ErkJggg==;" vertex="1" parent="1">
          <mxGeometry x="343.52" y="2005" width="52.97" height="60" as="geometry" />
        </mxCell>
        <mxCell id="V-wwlSEz8VEvQ7FsHcgh-98" style="edgeStyle=none;rounded=0;orthogonalLoop=1;jettySize=auto;html=1;strokeColor=#001224;fillColor=#e2e9f3;" edge="1" parent="1" source="V-wwlSEz8VEvQ7FsHcgh-99" target="V-wwlSEz8VEvQ7FsHcgh-97">
          <mxGeometry relative="1" as="geometry" />
        </mxCell>
        <mxCell id="V-wwlSEz8VEvQ7FsHcgh-99" value="" style="outlineConnect=0;dashed=0;verticalLabelPosition=bottom;verticalAlign=top;align=center;html=1;shape=mxgraph.aws3.application_load_balancer;fillColor=#F58534;gradientColor=none;" vertex="1" parent="1">
          <mxGeometry x="342.52" y="1918" width="49" height="40" as="geometry" />
        </mxCell>
        <mxCell id="V-wwlSEz8VEvQ7FsHcgh-100" value="" style="shape=image;html=1;verticalAlign=top;verticalLabelPosition=bottom;labelBackgroundColor=#ffffff;imageAspect=0;aspect=fixed;image=https://cdn1.iconfinder.com/data/icons/KDE_Crystal_Diamond_2.5_Classical_Mod/128x128/mimetypes/html.png;fillColor=#e2e9f3;" vertex="1" parent="1">
          <mxGeometry x="170" y="1850" width="40" height="40" as="geometry" />
        </mxCell>
        <mxCell id="V-wwlSEz8VEvQ7FsHcgh-101" style="edgeStyle=none;rounded=0;orthogonalLoop=1;jettySize=auto;html=1;entryX=0.5;entryY=0;entryDx=0;entryDy=0;entryPerimeter=0;strokeColor=#001326;fillColor=#e2e9f3;exitX=0.5;exitY=1;exitDx=0;exitDy=0;" edge="1" parent="1" source="V-wwlSEz8VEvQ7FsHcgh-102" target="V-wwlSEz8VEvQ7FsHcgh-99">
          <mxGeometry relative="1" as="geometry" />
        </mxCell>
        <mxCell id="V-wwlSEz8VEvQ7FsHcgh-102" value="https://&amp;lt;API-URL&amp;gt;/communication" style="rounded=1;whiteSpace=wrap;html=1;fillColor=#fff2cc;strokeColor=#d6b656;" vertex="1" parent="1">
          <mxGeometry x="237.02" y="1860" width="261.99" height="20" as="geometry" />
        </mxCell>
        <mxCell id="V-wwlSEz8VEvQ7FsHcgh-104" value="" style="sketch=0;html=1;dashed=0;whitespace=wrap;fillColor=#2875E2;strokeColor=#ffffff;points=[[0.005,0.63,0],[0.1,0.2,0],[0.9,0.2,0],[0.5,0,0],[0.995,0.63,0],[0.72,0.99,0],[0.5,1,0],[0.28,0.99,0]];verticalLabelPosition=bottom;align=center;verticalAlign=top;shape=mxgraph.kubernetes.icon;prIcon=pod" vertex="1" parent="1">
          <mxGeometry x="292.65999999999997" y="2158.67" width="47.34" height="41.33" as="geometry" />
        </mxCell>
        <mxCell id="V-wwlSEz8VEvQ7FsHcgh-105" value="&lt;span&gt;/communication&lt;/span&gt;" style="text;html=1;strokeColor=none;fillColor=none;align=center;verticalAlign=middle;whiteSpace=wrap;rounded=0;fontStyle=1" vertex="1" parent="1">
          <mxGeometry x="250" y="2100" width="92.66" height="30" as="geometry" />
        </mxCell>
        <mxCell id="V-wwlSEz8VEvQ7FsHcgh-107" value="&lt;b&gt;oneApi Plugin&lt;/b&gt;" style="rounded=1;whiteSpace=wrap;html=1;fillColor=#ffe6cc;strokeColor=#d79b00;" vertex="1" parent="1">
          <mxGeometry x="391.52" y="2120" width="107.49" height="20" as="geometry" />
        </mxCell>
        <mxCell id="V-wwlSEz8VEvQ7FsHcgh-114" style="edgeStyle=none;rounded=0;orthogonalLoop=1;jettySize=auto;html=1;entryX=0.5;entryY=0;entryDx=0;entryDy=0;strokeColor=#001224;fontColor=#6314FF;fillColor=#e2e9f3;startArrow=none;" edge="1" parent="1" source="V-wwlSEz8VEvQ7FsHcgh-118" target="V-wwlSEz8VEvQ7FsHcgh-89">
          <mxGeometry relative="1" as="geometry" />
        </mxCell>
        <mxCell id="V-wwlSEz8VEvQ7FsHcgh-108" value="" style="aspect=fixed;html=1;points=[];align=center;image;fontSize=12;image=img/lib/azure2/intune/Client_Apps.svg;dashed=1;strokeColor=#4F19FF;fontColor=#6314FF;fillColor=#0F0F0F;" vertex="1" parent="1">
          <mxGeometry x="550" y="1993.75" width="42.5" height="42.5" as="geometry" />
        </mxCell>
        <mxCell id="V-wwlSEz8VEvQ7FsHcgh-109" value="" style="sketch=0;html=1;dashed=0;whitespace=wrap;fillColor=#2875E2;strokeColor=#ffffff;points=[[0.005,0.63,0],[0.1,0.2,0],[0.9,0.2,0],[0.5,0,0],[0.995,0.63,0],[0.72,0.99,0],[0.5,1,0],[0.28,0.99,0]];verticalLabelPosition=bottom;align=center;verticalAlign=top;shape=mxgraph.kubernetes.icon;prIcon=pod" vertex="1" parent="1">
          <mxGeometry x="303.81" y="2323.33" width="46.19" height="36.67" as="geometry" />
        </mxCell>
        <mxCell id="V-wwlSEz8VEvQ7FsHcgh-115" style="edgeStyle=none;rounded=0;orthogonalLoop=1;jettySize=auto;html=1;strokeColor=#001224;fontColor=#6314FF;fillColor=#e2e9f3;" edge="1" parent="1" source="V-wwlSEz8VEvQ7FsHcgh-111" target="V-wwlSEz8VEvQ7FsHcgh-89">
          <mxGeometry relative="1" as="geometry" />
        </mxCell>
        <mxCell id="V-wwlSEz8VEvQ7FsHcgh-111" value="" style="aspect=fixed;perimeter=ellipsePerimeter;html=1;align=center;shadow=0;dashed=0;spacingTop=3;image;image=img/lib/active_directory/laptop_client.svg;strokeColor=#4F19FF;fontColor=#6314FF;fillColor=#0F0F0F;" vertex="1" parent="1">
          <mxGeometry x="763" y="1880" width="54" height="60" as="geometry" />
        </mxCell>
        <mxCell id="V-wwlSEz8VEvQ7FsHcgh-116" value="&lt;span&gt;Subscribe to API&lt;/span&gt;" style="text;html=1;strokeColor=#9673a6;fillColor=#e1d5e7;align=center;verticalAlign=middle;whiteSpace=wrap;rounded=0;fontStyle=1" vertex="1" parent="1">
          <mxGeometry x="650" y="2020" width="130" height="30" as="geometry" />
        </mxCell>
        <mxCell id="V-wwlSEz8VEvQ7FsHcgh-117" value="&lt;span&gt;Client-ID From IAM Request&lt;/span&gt;" style="text;html=1;strokeColor=none;fillColor=none;align=center;verticalAlign=middle;whiteSpace=wrap;rounded=0;fontStyle=1" vertex="1" parent="1">
          <mxGeometry x="757" y="1955" width="92.66" height="30" as="geometry" />
        </mxCell>
        <mxCell id="V-wwlSEz8VEvQ7FsHcgh-119" value="&lt;b&gt;Ingress&lt;/b&gt;" style="rounded=1;whiteSpace=wrap;html=1;fillColor=#f8cecc;strokeColor=#b85450;" vertex="1" parent="1">
          <mxGeometry x="410" y="2220" width="107.49" height="20" as="geometry" />
        </mxCell>
        <mxCell id="V-wwlSEz8VEvQ7FsHcgh-121" value="" style="rounded=0;orthogonalLoop=1;jettySize=auto;html=1;fillColor=#e2e9f3;entryX=0.11;entryY=0.489;entryDx=0;entryDy=0;entryPerimeter=0;endArrow=none;" edge="1" parent="1" source="V-wwlSEz8VEvQ7FsHcgh-63" target="V-wwlSEz8VEvQ7FsHcgh-86">
          <mxGeometry relative="1" as="geometry">
            <mxPoint x="581" y="1413" as="targetPoint" />
            <Array as="points" />
            <mxPoint x="319" y="1257" as="sourcePoint" />
          </mxGeometry>
        </mxCell>
        <mxCell id="V-wwlSEz8VEvQ7FsHcgh-122" value="" style="edgeStyle=orthogonalEdgeStyle;rounded=0;orthogonalLoop=1;jettySize=auto;html=1;fillColor=#e2e9f3;entryX=0;entryY=0.5;entryDx=0;entryDy=0;endArrow=none;" edge="1" parent="1" source="V-wwlSEz8VEvQ7FsHcgh-63" target="V-wwlSEz8VEvQ7FsHcgh-86">
          <mxGeometry relative="1" as="geometry">
            <Array as="points">
              <mxPoint x="445" y="1220" />
            </Array>
            <mxPoint x="320" y="1220" as="sourcePoint" />
            <mxPoint x="680" y="980" as="targetPoint" />
          </mxGeometry>
        </mxCell>
        <mxCell id="V-wwlSEz8VEvQ7FsHcgh-86" value="&lt;b&gt;oneApi Plugin&lt;/b&gt;" style="rounded=1;whiteSpace=wrap;html=1;fillColor=#ffe6cc;strokeColor=#d79b00;" vertex="1" parent="1">
          <mxGeometry x="299.99999999999994" y="1210" width="107.49" height="20" as="geometry" />
        </mxCell>
        <mxCell id="V-wwlSEz8VEvQ7FsHcgh-127" value="" style="rounded=0;orthogonalLoop=1;jettySize=auto;html=1;fillColor=#e2e9f3;entryX=0.11;entryY=0.489;entryDx=0;entryDy=0;entryPerimeter=0;startArrow=none;exitX=0.65;exitY=0.9;exitDx=0;exitDy=0;exitPerimeter=0;endArrow=none;" edge="1" parent="1" source="V-wwlSEz8VEvQ7FsHcgh-63" target="V-wwlSEz8VEvQ7FsHcgh-125">
          <mxGeometry relative="1" as="geometry">
            <mxPoint x="581" y="1413" as="targetPoint" />
            <Array as="points" />
            <mxPoint x="292" y="1252" as="sourcePoint" />
          </mxGeometry>
        </mxCell>
        <mxCell id="V-wwlSEz8VEvQ7FsHcgh-125" value="&lt;b&gt;Ingress&lt;/b&gt;" style="rounded=1;whiteSpace=wrap;html=1;fillColor=#f8cecc;strokeColor=#b85450;" vertex="1" parent="1">
          <mxGeometry x="410" y="1330" width="107.49" height="20" as="geometry" />
        </mxCell>
        <mxCell id="V-wwlSEz8VEvQ7FsHcgh-128" value="" style="edgeStyle=none;rounded=0;orthogonalLoop=1;jettySize=auto;html=1;fillColor=#e2e9f3;endArrow=none;" edge="1" parent="1" source="V-wwlSEz8VEvQ7FsHcgh-93" target="V-wwlSEz8VEvQ7FsHcgh-106">
          <mxGeometry relative="1" as="geometry">
            <mxPoint x="370" y="2187" as="sourcePoint" />
            <mxPoint x="370" y="2340" as="targetPoint" />
          </mxGeometry>
        </mxCell>
        <mxCell id="V-wwlSEz8VEvQ7FsHcgh-106" value="&lt;span&gt;caching&lt;/span&gt;" style="text;html=1;strokeColor=none;fillColor=none;align=center;verticalAlign=middle;whiteSpace=wrap;rounded=0;fontStyle=1" vertex="1" parent="1">
          <mxGeometry x="323.67" y="2250" width="92.66" height="30" as="geometry" />
        </mxCell>
        <mxCell id="V-wwlSEz8VEvQ7FsHcgh-129" value="" style="edgeStyle=none;rounded=0;orthogonalLoop=1;jettySize=auto;html=1;entryX=0.5;entryY=0;entryDx=0;entryDy=0;strokeColor=#001224;fontColor=#6314FF;fillColor=#e2e9f3;endArrow=none;" edge="1" parent="1" source="V-wwlSEz8VEvQ7FsHcgh-108" target="V-wwlSEz8VEvQ7FsHcgh-118">
          <mxGeometry relative="1" as="geometry">
            <mxPoint x="593" y="2030" as="sourcePoint" />
            <mxPoint x="790" y="2133" as="targetPoint" />
          </mxGeometry>
        </mxCell>
        <mxCell id="V-wwlSEz8VEvQ7FsHcgh-118" value="&lt;span&gt;Client-ID From IAM Request&lt;/span&gt;" style="text;html=1;strokeColor=none;fillColor=none;align=center;verticalAlign=middle;whiteSpace=wrap;rounded=0;fontStyle=1" vertex="1" parent="1">
          <mxGeometry x="592.5" y="2055" width="92.66" height="30" as="geometry" />
        </mxCell>
        <mxCell id="V-wwlSEz8VEvQ7FsHcgh-132" value="&lt;b&gt;APIKey&lt;/b&gt;" style="rounded=1;whiteSpace=wrap;html=1;dashed=1;strokeColor=#B09500;fillColor=#e3c800;fontColor=#000000;" vertex="1" parent="1">
          <mxGeometry x="880" y="2000" width="80" height="30" as="geometry" />
        </mxCell>
        <mxCell id="V-wwlSEz8VEvQ7FsHcgh-133" value="&lt;b&gt;APIKey&lt;/b&gt;" style="rounded=1;whiteSpace=wrap;html=1;dashed=1;strokeColor=#B09500;fillColor=#e3c800;fontColor=#000000;" vertex="1" parent="1">
          <mxGeometry x="540" y="2103.34" width="80" height="30" as="geometry" />
        </mxCell>
        <mxCell id="V-wwlSEz8VEvQ7FsHcgh-135" value="&lt;ul style=&quot;border-color: var(--border-color); color: rgb(0, 0, 0); text-align: left;&quot;&gt;&lt;li style=&quot;border-color: var(--border-color);&quot;&gt;&lt;b style=&quot;border-color: var(--border-color);&quot;&gt;OneApi Hub: (Subscription to other registered APIs)&lt;/b&gt;&lt;/li&gt;&lt;ul style=&quot;border-color: var(--border-color);&quot;&gt;&lt;li style=&quot;border-color: var(--border-color);&quot;&gt;Susbscribe API&lt;/li&gt;&lt;li style=&quot;border-color: var(--border-color);&quot;&gt;&lt;span style=&quot;border-color: var(--border-color); background-color: initial;&quot;&gt;Client ID (IAM Request) to subscribe&lt;/span&gt;&lt;/li&gt;&lt;/ul&gt;&lt;/ul&gt;" style="text;html=1;strokeColor=none;fillColor=none;align=center;verticalAlign=middle;whiteSpace=wrap;rounded=0;fontColor=#6314FF;" vertex="1" parent="1">
          <mxGeometry x="860" y="2060" width="360" height="73.34" as="geometry" />
        </mxCell>
        <mxCell id="V-wwlSEz8VEvQ7FsHcgh-138" value="" style="rounded=0;whiteSpace=wrap;html=1;strokeColor=#6c8ebf;dashed=1;fillColor=#dae8fc;" vertex="1" parent="1">
          <mxGeometry x="360" y="-730" width="340" height="180" as="geometry" />
        </mxCell>
        <mxCell id="V-wwlSEz8VEvQ7FsHcgh-139" value="" style="sketch=0;html=1;dashed=0;whitespace=wrap;fillColor=#2875E2;strokeColor=#ffffff;points=[[0.005,0.63,0],[0.1,0.2,0],[0.9,0.2,0],[0.5,0,0],[0.995,0.63,0],[0.72,0.99,0],[0.5,1,0],[0.28,0.99,0]];verticalLabelPosition=bottom;align=center;verticalAlign=top;shape=mxgraph.kubernetes.icon;prIcon=api" vertex="1" parent="1">
          <mxGeometry x="575" y="-690" width="65" height="60" as="geometry" />
        </mxCell>
        <mxCell id="V-wwlSEz8VEvQ7FsHcgh-150" style="edgeStyle=orthogonalEdgeStyle;rounded=0;orthogonalLoop=1;jettySize=auto;html=1;dashed=1;strokeColor=#0000FF;fontColor=#6314FF;fillColor=#e2e9f3;" edge="1" parent="1" source="V-wwlSEz8VEvQ7FsHcgh-140" target="V-wwlSEz8VEvQ7FsHcgh-143">
          <mxGeometry relative="1" as="geometry" />
        </mxCell>
        <mxCell id="V-wwlSEz8VEvQ7FsHcgh-140" value="" style="outlineConnect=0;dashed=0;verticalLabelPosition=bottom;verticalAlign=top;align=center;html=1;shape=mxgraph.aws3.application_load_balancer;fillColor=#F58534;gradientColor=none;" vertex="1" parent="1">
          <mxGeometry x="306.48" y="-680" width="39" height="40" as="geometry" />
        </mxCell>
        <mxCell id="V-wwlSEz8VEvQ7FsHcgh-151" style="edgeStyle=orthogonalEdgeStyle;rounded=0;orthogonalLoop=1;jettySize=auto;html=1;entryX=0.199;entryY=0.5;entryDx=0;entryDy=0;entryPerimeter=0;dashed=1;strokeColor=#0000FF;fontColor=#6314FF;fillColor=#e2e9f3;" edge="1" parent="1" source="V-wwlSEz8VEvQ7FsHcgh-143" target="V-wwlSEz8VEvQ7FsHcgh-139">
          <mxGeometry relative="1" as="geometry" />
        </mxCell>
        <mxCell id="V-wwlSEz8VEvQ7FsHcgh-143" value="" style="shape=image;verticalLabelPosition=bottom;labelBackgroundColor=default;verticalAlign=top;aspect=fixed;imageAspect=0;image=data:image/png,iVBORw0KGgoAAAANSUhEUgAAANMAAADvCAMAAABfYRE9AAAAulBMVEX///8AljkAlDQAjyjn9Ove8uaEyZwAnkZDpFu75MsAlDEAmDkAkS2CwpS53cQAjSKo0bH3/Pns9/Dz+vYAjiTp9+/Y7N4AjBvK6NVKp2GXzqhLrGfN6NZksXiJx5vA4Mm03MGk17YfmkIpoE58xJNzvIhcr3FBqF+Sz6bT7d0AhgButX43oVOg1LEglj1Trm0znk5ouYBguX1WtHVtvYefzaofo0+Ux6A2qV1Zq2x4uYgqmEOu3sGMzaO65wX5AAANn0lEQVR4nN1d6WKyOBRNAtQ2xoWl4C7uWrHWrn62ff/XGq1dchGQACqZ82vmq6U5Jnc594YEobNANzRNUw39PH/tHLCrw3Vxi2anbFx6LNlAb0wUheAtqFJsdy89nCzQrdMvQnsQvJJ9qnSt6XCMdmB3DalZaW+Y4QNYk6p56ZElxrTOyCGlrV2Rce3SY0uGGmBEKG9WFD+rlx6fOGYrh3KMWH3eflC4uVIqL5Kx0l4KPAFr8KJtJ25EOJq40nRlisG9a37Z0crQ/vpnvTZxwAKUx6zsAWBEPO3vZ70+4X/GhlL49dnQ4l0Dq1fBj43OAKxK/HJ7oYHGxm0DDFkpvmj+j7Q2Fu89rHH5EgOND/caeGzn0Q74kF72HI43u18FfSof0O01WHZ02Qr7aO8dch/mNLGwSwqMSI2ID6ulPlijg2oOnYU+9fjUjpHGkZDaGvF+nShj9yzjFMANVBRO83iSoJdxhfsdhtsH7uSSmC0daEgxY+nigY9kzMlPtNI6Fr/slOuX2DmPXerzv1pZu7lgpTeugSHRjtASaj3xfp3Q8c2pBhofNY9PdkilKWoUepeCVAqvLmxWW0XBMyL1JCUUffoAZ/qYyzwltLciPxgrcZCZbYo+s7pQDNZ7E4X3WqyUPMXRu9BzXkiFtAZQNTRn6Z7nYqhQVmefKvsZRqT6R+pHmiVgVsrRTCRbqG9QUfSzqS3MSiDQWecU9x+gIkSd56y8r96F4r7YDs3ss0VtAmpcJFxRJIDeewCJI3s8g1nZJZhO13sZ/wFzOADRCi9OnC4ZfkN6O4Edt0awojHO+msD+LgGidDd42k8k94t8IuBFecnS5daTfD9keYJ46JPhVijk3x7dsfh1jmx6qdtTmhQ3FuF7FWI0VjDGtfbybPn2spnVhnXzG6gonCezlG90muUZ0Xvl9lNlW4/wQTz+my6rQHMilqdjMxK60AhcNYu36zjkzNZmJW5mFjcQ5l1ekOC8KkQmr5zX5sAQ1KWKRVFAujuQAFm9ZRqquynOxCRzmdIEEMo7pVFYrPSOqBQZXkvFytU2RsChjKpJlMhvWsgzZ2rS9Zz9BZUIXSeIImpTUDngS0v3U/RPwZgREQ0XbJXPkXhnmScYtB94t4RMSu14WuknEJRJEFrAzr3yrJ6/Hf2aPiafZlJ8/TQW2uoQsaxYotfmk8ubUg+NHw1uONmNYPNPqWZ0GmeELcdaBmFaiQr4+WVT4QUfO5EKB5qG7CUrGU5/Iv3SXMnt/1wvTwA0aq/DP7udXsNexTX50/tBLAY+Lb/BCxAu0SB86/Hb/ZdBho0K8vzN1XMhsd/gDnVXBoSROsRLCxrDFTIbAmKn5WzSPP0MMt9IO7x6E+tdvllR2g9By3VuJgCcW8VftZfi58ky2vk3JAgtA0viNj3vgx18keJMbGueQ6gtx454cpKXzPS+U0cqLKWjdEOuvv6uwBJf6erZt73/xO2lMiQAMzO72YnZbSdqOq3E2eD/O94DMdsU/yemqK6FVp7TsST++0QvfE9UU4LmU/7WSOx5VVe0d5PlDVFxuvXf5JrOcJsBHr7yVGukFrYT9O1jB4P4CYbTtp0tGq3V6PPblYldG0x2j3wI8HzsuBkLAYKJXQHorDXRQZvC9prhX09j1Hxtmp6TttAB97WIhVaSrmpwOhwGalCRTd8pOZkdA5fbbIKb2kinDnm5c5WlHbESKXlZI4C3j/bpvRpikxNxfc4+in0+2k5dRwcCGIlbroOKwdPuxOqiafkNAuhtDOrhKRq74ev6RFPZPWl5PQYtPK+xzFI5ik6gY8U2UGXjpP2HkppRypRpJscTtPWojYCj0jHaRH4NucP2DpB660W+EhSFxhVOk6dSE57CSMI99BD7Eb1KuAl0nEq0aABcDP1JsypGsgJFwU8zmk54aL7/+NEqKhHzz8nTAqCzk8CTpj9E3N+MnDCbC7k/KTghFnn/8cJ06h3JCXlRJhAU04STpi8xyclCyfMlrGLCtJwwnQV1/nJwwkrz/8/TtiJ+V6CTJwwjjcqqTgRL1YpSSpOmK7j1Inl4rTV8v8/TliJUVCVjVOcfp18nPDRvqp0nDBRjmV+ueUUXiKj3pGOR1459V/DS85sHq3l88qJ2s1wUsom0vnllZOjGpNwS7MiZW9+Oe0OKwglpbhyckKuv9n3B9KPcH555oQWwYPb/43wdDbXnFBgp3cPZRzq/PLNyWxHkBrJyQlpXoTzCytk5pwT0gLazT9gIR3avHNC3eCjbr/+zkNwOpt7TqgRkSR5gTW//HNCpfAwFSx7JeBkziOc35OcnJBRj9gWErArXwZOaFYM9xP3rpycUDmCFD1IkuTghKrhUYpQv/OThJMetiEO794V8Wl5STgh/dEK/NzX3yvB6qwsnJAxCXd+vsxPGk7IXofblOPKyQnV7kM5EcpnfhJxQr27cFJ8F0cmTmgakflxbwpLxUlfRfiJ9m+SJBUnpC7jyF65OCHtPkL2LuTkhGYkPPPrl+XkhD7CSVGvJScnPXhD/BeYZ0jJCenPx2SvfJwQ+hdB6lmXk1NUIZM05OSEuv1I5yclJ1QthnHCRLkNfrch75zQIqI1tX4OfmTeOaFRRGsqZGHmnpOxDJ+pEOSeE9LWoptF8s8J1SJa2LJyQt1wk5KWE3oLr/lJywldhSdJ0nIyHkX8hBycts5PwE9Iwglp4eUxaTmhbrjslZYT6kVUXWTlpA/jOj95OCE9buYnESeEBvFmSipOswgtLysnVI7YlCQrJ9SIM1GScUKd8G6vtJzQ+Dgp6Thpy6POTzpOyL4+5ifk44S6Ea945IOTJX4avXtM9goc3piO0zT4kJtCggPmSpGkiCfwynw6TrPAXQ/sMcFhdeYmKkzRtsDJGinPofKCJspyRQntYEQ5PypyAE9KTkEvMJBJstMjtUK4n+iLPDIlJz1gv6HQERg8bBo2U47QYXVpz6qzD7pJylyMCQcNnDTOPfJR6DGpz0ks+0hZ9RRHJBpvOEAjkpXY0Tvpz7MEZ57jSsp7zGvPlo8Vq3wKHqWWwbmj6pNCKfkCC9pdLQbdfqbs53mEMqUpfIpkJufDzob/rj3vuj5eZHOK+82wXd8+cPvE9jTBtGd05q2uzWZ2lqdp32r2bKYle2JGnHKFP05mc5+c9GU9j/0XQ/rL6XvbzLEXnXOP1sM+ulRchF6+nSgdSX3at1v/DpjW1oi6P3sxmJc0u7k8tHn/O7+nE4N/VYmwQcSlQzmGMcW/ioW5u3/pcunI3cqWjpVRLvzJBDreB4IGpzVZvySZU+/OwRuZP4ev8gKasAeZzMpcgbsu7/5qMg3MKWhieV1JFqDxWeEZ0T5fkumOwaVDlVWu7+j6hu7Ca3CLJRiNbl981yzm/y6e2sbiV5ezPFxd6nOF/wh9OOlN8alhju75ZacUF4F5kLYEZuUM8mtWRs8Bd6W9D8M+qbvwVnq6SXkTw4mgu0u+cEXxKOr4bPWl6Lu9NIeZbWuOuWVHnPWx9aSt4HWfA/cs44wPY9jnLYT1ezFK2rN/Rfg1tHJkVoZLgSH1S/FEsV4FV10wkvaCk8ygl5cVYPDz+H0PtQHdysM0F1M1a4NEaOuYhTop6jMBq/ZB9PaY7GFcYa5eux3eVPgRN23+2nDiPF3WrIwq5v13Qv1gvkzAAvSnU2dFtw0ip5XkKvQvqB0+7SXUu8p0nPGhPQNDsgZuiju0bp9AuqRcRNybUwdkovdi9w0dojwGMdhJPOlJYVY9oCj6o/SKwajCO6qL572jujuHrmqVTWKtlYAKYd7i+O9khG0iBFpCxWpWl9H5VUileB6/bn6C0E/fxSNSFNwlvH48MrvPBmZ5AiISHmVdUFDdAlAh/c6JbzyttQlIhAKkeXqozyDsMU/kEi1R3I6gorCqJ1rtrXYR+KDXU5mVsYCKYtDJzDUcorfkPStlJ1EhZrfJX+dIyYmNV23wgnGrQkqZf4OzNgaGNDl97mI+AQ+Ydc3MHIKwQVjvLGFj65FAtGpmd0Oy0cMgERoMz3WftF6FRV3rLaPIUV6CErc1OmfRQJ2CbSzME7xvNBA2qHHhyrp8Qm8XBOORAQGA0/bt9SsCFcUlaiDlMQbRalxLMQij2q9wL/mzwfwyF7Mb7gAkZMXkLUa3zW93I5XVuVXaH7Qp48W94iXbS6WNQLHYKpzbkHzDWUFxXxDPNI0rBpp976k3maXGxz8KhaiY/zXLcAH3N3lo5hnVAYyTImbVBYaErXZ28TsdjJEDi7Zx0yV9xSsKbDlpalxZQ2snaDGqUwUE7v7nxQ0Jwq3DmtlRoW1218CQ8tM9+YP6MvB17iOjZmtOYSKc+MLxk0JdwXrpe7hZ6at73pAY/siRIUHMxrxZbeVcsFkZPQLbWwkuez4fdh1xoBY2AWbl7+6fVVEkgU/cH3buWxvi65rndtn9QV1BFdLnS9FmCft+KAGjHWq+DTGTHxVilBWYcowkYYR2/RVQFqZkb1buGPQo2CoviVA8qA0HmJVX+ljArnnlVQZDgvCpEEpA+k77+dieIIruv7CDVxiWbdftL4yeF/RKO2HzfCZC8aBO7w5eFrQKeVIUSaDBdGkrzUO3D0qE8vhXJm3TvEtuHMkQt9Un6liKYjnFklwRKQqmWpt+Thcz9Sz++z+cUizQWILvCQAAAABJRU5ErkJggg==;" vertex="1" parent="1">
          <mxGeometry x="399.15" y="-690" width="52.97" height="60" as="geometry" />
        </mxCell>
        <mxCell id="V-wwlSEz8VEvQ7FsHcgh-149" style="edgeStyle=orthogonalEdgeStyle;rounded=0;orthogonalLoop=1;jettySize=auto;html=1;entryX=0;entryY=0.5;entryDx=0;entryDy=0;entryPerimeter=0;dashed=1;strokeColor=#0000FF;fontColor=#6314FF;fillColor=#e2e9f3;" edge="1" parent="1" source="V-wwlSEz8VEvQ7FsHcgh-144" target="V-wwlSEz8VEvQ7FsHcgh-140">
          <mxGeometry relative="1" as="geometry" />
        </mxCell>
        <mxCell id="V-wwlSEz8VEvQ7FsHcgh-144" value="https://&amp;lt;API-URL&amp;gt;" style="rounded=1;whiteSpace=wrap;html=1;fillColor=#fff2cc;strokeColor=#d6b656;" vertex="1" parent="1">
          <mxGeometry x="208.01" y="-770" width="181.99" height="20" as="geometry" />
        </mxCell>
        <mxCell id="V-wwlSEz8VEvQ7FsHcgh-147" value="" style="shape=image;html=1;verticalAlign=top;verticalLabelPosition=bottom;labelBackgroundColor=#ffffff;imageAspect=0;aspect=fixed;image=https://cdn1.iconfinder.com/data/icons/KDE_Crystal_Diamond_2.5_Classical_Mod/128x128/mimetypes/html.png;fillColor=#e2e9f3;" vertex="1" parent="1">
          <mxGeometry x="134.37" y="-780" width="40" height="40" as="geometry" />
        </mxCell>
        <mxCell id="V-wwlSEz8VEvQ7FsHcgh-152" value="" style="aspect=fixed;html=1;points=[];align=center;image;fontSize=12;image=img/lib/azure2/containers/Kubernetes_Services.svg;fillColor=#e2e9f3;" vertex="1" parent="1">
          <mxGeometry x="337.83000000000004" y="-570" width="45.33" height="40" as="geometry" />
        </mxCell>
        <mxCell id="V-wwlSEz8VEvQ7FsHcgh-153" value="&lt;b&gt;1. Registration&lt;/b&gt;" style="text;html=1;strokeColor=none;fillColor=none;align=center;verticalAlign=middle;whiteSpace=wrap;rounded=0;fontColor=#6314FF;" vertex="1" parent="1">
          <mxGeometry x="790.48" y="311.66" width="99.52" height="30" as="geometry" />
        </mxCell>
        <mxCell id="V-wwlSEz8VEvQ7FsHcgh-154" value="2. Configure Kong GW" style="text;html=1;strokeColor=none;fillColor=none;align=center;verticalAlign=middle;whiteSpace=wrap;rounded=0;fontColor=#6314FF;fontStyle=1" vertex="1" parent="1">
          <mxGeometry x="273.33000000000004" y="330" width="143" height="30" as="geometry" />
        </mxCell>
        <mxCell id="V-wwlSEz8VEvQ7FsHcgh-155" value="3. Authentication/Authorization" style="text;html=1;strokeColor=none;fillColor=none;align=center;verticalAlign=middle;whiteSpace=wrap;rounded=0;fontColor=#6314FF;fontStyle=1" vertex="1" parent="1">
          <mxGeometry x="493.51" y="220" width="220" height="30" as="geometry" />
        </mxCell>
        <mxCell id="V-wwlSEz8VEvQ7FsHcgh-156" value="&lt;b&gt;4. Redirect to API&lt;/b&gt;" style="text;html=1;strokeColor=none;fillColor=none;align=center;verticalAlign=middle;whiteSpace=wrap;rounded=0;fontColor=#6314FF;" vertex="1" parent="1">
          <mxGeometry x="407.49" y="410" width="110" height="30" as="geometry" />
        </mxCell>
        <mxCell id="V-wwlSEz8VEvQ7FsHcgh-159" value="" style="sketch=0;html=1;dashed=0;whitespace=wrap;fillColor=#2875E2;strokeColor=#ffffff;points=[[0.005,0.63,0],[0.1,0.2,0],[0.9,0.2,0],[0.5,0,0],[0.995,0.63,0],[0.72,0.99,0],[0.5,1,0],[0.28,0.99,0]];verticalLabelPosition=bottom;align=center;verticalAlign=top;shape=mxgraph.kubernetes.icon;prIcon=pod" vertex="1" parent="1">
          <mxGeometry x="110" y="1300" width="47.34" height="41.33" as="geometry" />
        </mxCell>
        <mxCell id="V-wwlSEz8VEvQ7FsHcgh-162" value="&lt;span&gt;/communication&lt;/span&gt;" style="text;html=1;strokeColor=none;fillColor=none;align=center;verticalAlign=middle;whiteSpace=wrap;rounded=0;fontStyle=1" vertex="1" parent="1">
          <mxGeometry x="218.01" y="1160" width="92.66" height="30" as="geometry" />
        </mxCell>
        <mxCell id="V-wwlSEz8VEvQ7FsHcgh-163" value="" style="edgeStyle=orthogonalEdgeStyle;rounded=0;orthogonalLoop=1;jettySize=auto;html=1;entryX=0.5;entryY=0;entryDx=0;entryDy=0;entryPerimeter=0;dashed=1;strokeColor=#0000FF;fontColor=#6314FF;fillColor=#e2e9f3;endArrow=none;" edge="1" parent="1" source="V-wwlSEz8VEvQ7FsHcgh-67" target="V-wwlSEz8VEvQ7FsHcgh-124">
          <mxGeometry relative="1" as="geometry">
            <mxPoint x="254" y="1100" as="sourcePoint" />
            <mxPoint x="134" y="1300" as="targetPoint" />
          </mxGeometry>
        </mxCell>
        <mxCell id="V-wwlSEz8VEvQ7FsHcgh-124" value="&lt;span&gt;/ui&lt;/span&gt;" style="text;html=1;strokeColor=none;fillColor=none;align=center;verticalAlign=middle;whiteSpace=wrap;rounded=0;fontStyle=1" vertex="1" parent="1">
          <mxGeometry x="87.34" y="1120" width="92.66" height="30" as="geometry" />
        </mxCell>
      </root>
    </mxGraphModel>
  </diagram>
</mxfile>
